<svg width="64" height="64" viewBox="0 0 64 64" fill="none" xmlns="http://www.w3.org/2000/svg">
<path d="M45.9962 24.1348C46.0616 24.1479 46.1401 24.161 46.2316 24.161C46.4671 24.161 46.781 24.0694 47.0819 23.6901C47.1604 23.5854 47.2388 23.4677 47.2912 23.363C47.5528 23.4023 47.8013 23.363 47.9844 23.2061C48.1676 23.0491 48.2591 22.8136 48.2591 22.5389C48.9132 22.3166 49.2794 21.9111 49.2402 21.3878C49.1748 20.603 48.3638 20.0405 47.435 20.119C47.0295 20.1582 46.6894 20.2498 46.4278 20.3937C46.1924 20.1844 45.8523 20.1713 45.6168 20.3806C45.3814 20.5768 45.3421 20.93 45.4991 21.1916C45.316 21.4271 45.159 21.741 45.0674 22.1334C44.9628 22.552 44.9889 22.9968 45.1459 23.363C45.316 23.7555 45.6299 24.0302 46.0092 24.1217L45.9962 24.1348ZM47.4874 20.7992C48.0368 20.7469 48.5338 21.0477 48.5731 21.4532C48.5862 21.6364 48.3899 21.7803 48.1152 21.8849C48.0368 21.7018 47.919 21.5186 47.7751 21.3486C47.592 21.1393 47.3827 20.9693 47.1734 20.8515C47.2781 20.8254 47.3827 20.8123 47.4874 20.7992ZM45.6953 22.3035C45.7215 22.1988 45.7607 22.0942 45.7869 22.0026C45.8654 22.2381 45.9962 22.4605 46.1793 22.6828C46.3232 22.8529 46.4932 22.9968 46.6633 23.1145C46.624 23.1799 46.5848 23.2322 46.5456 23.2845C46.3493 23.5331 46.2055 23.4938 46.1531 23.4808C45.97 23.4284 45.8261 23.2976 45.7345 23.0883C45.6299 22.8529 45.6168 22.5782 45.6822 22.3035H45.6953Z" fill="#7A7A83"/>
<path d="M16.2114 6.17482C17.2709 6.17482 18.1604 5.37689 18.2782 4.33043C18.409 3.19241 17.5849 2.15903 16.4469 2.02822C16.3684 2.02822 16.2899 2.01514 16.2114 2.01514C15.1519 2.01514 14.2624 2.81306 14.1446 3.85952C14.0792 4.422 14.2362 4.95831 14.5894 5.38997C14.9295 5.82164 15.4266 6.09634 15.989 6.16174C16.0675 6.16174 16.146 6.17482 16.2245 6.17482H16.2114Z" fill="#7A7A83"/>
<path d="M37.0228 24.7365C37.1797 24.7365 37.3498 24.7234 37.5068 24.6842C38.9849 24.3703 40.0052 22.6698 39.7828 20.9039C39.5866 19.2949 38.4617 18.1307 37.1013 18.1307C35.7409 18.1307 36.7742 18.1438 36.6173 18.1831C35.1392 18.497 34.1189 20.1975 34.3412 21.9634C34.5374 23.5723 35.6624 24.7365 37.0228 24.7365ZM36.7742 18.9025C36.8789 18.8763 36.9966 18.8633 37.1013 18.8633C38.03 18.8633 38.8148 19.6612 39.0241 20.7861C38.7364 20.3675 38.3178 20.0929 37.8469 20.0536C37.8076 20.0536 37.7815 20.0536 37.7422 20.0536C37.6245 20.0536 37.5068 20.0667 37.389 20.0929C37.2452 20.1321 37.1013 20.1844 36.9705 20.2629C36.3949 20.603 36.0156 21.3094 36.0025 22.0811C36.0025 22.6959 36.2118 23.2715 36.5911 23.6639C36.735 23.8078 36.892 23.9255 37.062 24.004C37.0489 24.004 37.0359 24.004 37.0228 24.004C36.0417 24.004 35.2176 23.1145 35.0607 21.8718C34.8906 20.4591 35.6493 19.1249 36.7612 18.8894L36.7742 18.9025Z" fill="#7A7A83"/>
<path d="M29.3182 25.1682C29.4752 25.1682 29.6452 25.1551 29.8022 25.1158C31.2803 24.8019 32.3006 23.1014 32.0782 21.3355C31.882 19.7266 30.7571 18.5624 29.3967 18.5624C28.0363 18.5624 29.0697 18.5755 28.9127 18.6147C27.4346 18.9286 26.4143 20.6291 26.6366 22.395C26.8328 24.004 27.9578 25.1682 29.3182 25.1682ZM29.0697 19.3341C29.1743 19.308 29.292 19.2949 29.3967 19.2949C30.3254 19.2949 31.1103 20.0928 31.3195 21.2178C31.0318 20.7992 30.6132 20.5245 30.1423 20.4852C30.103 20.4852 30.0769 20.4852 30.0376 20.4852C29.9199 20.4852 29.8022 20.4983 29.6845 20.5245C29.5406 20.5637 29.3967 20.6161 29.2659 20.6945C28.6903 21.0346 28.311 21.741 28.2979 22.5128C28.2979 23.1276 28.5072 23.7031 28.8865 24.0955C29.0304 24.2394 29.1874 24.3572 29.3574 24.4356C29.3444 24.4356 29.3313 24.4356 29.3182 24.4356C28.3371 24.4356 27.513 23.5461 27.3561 22.3035C27.186 20.8908 27.9447 19.5565 29.0566 19.3211L29.0697 19.3341Z" fill="#7A7A83"/>
<path d="M32.0652 27.0256C32.1306 27.078 32.2091 27.1041 32.2876 27.1041C32.4053 27.1041 32.5099 27.0518 32.5753 26.9602C32.8108 26.6594 33.3079 26.1623 33.975 26.1623C34.6421 26.1623 34.2889 26.1885 34.459 26.2408C34.6944 26.3193 34.786 26.4501 34.7468 26.6463C34.7075 26.8425 34.5244 27.0518 34.2497 27.1172C34.2235 27.1172 34.1843 27.1172 34.145 27.1172C34.0796 27.1172 34.0404 27.1172 34.0273 27.1172H33.9488H33.9357C33.8573 27.1434 33.7788 27.1957 33.7395 27.2611L33.6872 27.3134V27.3396H33.6741V27.4704C33.6741 27.4704 33.6741 27.4965 33.6741 27.5096V27.5227V27.575C33.6872 27.575 33.6872 27.575 33.6872 27.575V27.6012C33.6872 27.6274 33.6872 27.6274 33.6872 27.6404V27.6666C33.7003 27.6666 33.7134 27.6797 33.7134 27.6797L33.7657 27.732L33.7788 27.7451H33.8049C33.8049 27.7582 33.8049 27.7582 33.8049 27.7582C33.8049 27.7582 33.818 27.7582 33.8311 27.7712H33.8573V27.7843L33.8965 27.8105H33.9357H34.0404C34.0666 27.8105 34.1058 27.8105 34.145 27.8105C34.3936 27.8366 34.6029 27.9151 34.6944 28.0067C34.7206 28.0329 34.7337 28.059 34.7337 28.1244C34.7206 28.2945 34.5898 28.4514 34.3936 28.5692C34.302 28.6215 34.0927 28.7131 33.818 28.7131C33.5956 28.7131 33.3602 28.6607 33.1509 28.543C33.0986 28.5168 33.0332 28.5038 32.9678 28.5038C32.8239 28.5038 32.7062 28.5822 32.6407 28.7C32.5884 28.7915 32.5884 28.8831 32.6146 28.9878C32.6408 29.0793 32.7062 29.1578 32.7977 29.2101C33.1117 29.3802 33.4648 29.4717 33.818 29.4717C34.1712 29.4717 34.459 29.3933 34.7468 29.2494C35.1784 29.0139 35.44 28.6477 35.4793 28.2029C35.4793 28.1637 35.4793 28.1375 35.4793 28.0983C35.4793 27.889 35.4008 27.6928 35.2569 27.5358L35.0999 27.3657C35.2569 27.1957 35.3615 26.9864 35.4139 26.7509C35.4139 26.6986 35.427 26.6332 35.44 26.594C35.4793 26.0707 35.1784 25.6652 34.629 25.4821C34.3805 25.4036 34.145 25.3644 33.9096 25.3644C32.9285 25.3644 32.2483 26.0446 31.9213 26.4501C31.8036 26.6071 31.8297 26.8425 31.9867 26.9733L32.0652 27.0256Z" fill="#7A7A83"/>
<path d="M60.843 44.6977L60.1104 43.4158C59.9796 43.1934 59.8227 42.9972 59.6395 42.8141C59.6134 42.7749 59.5872 42.7356 59.548 42.6964C59.548 42.6964 59.4826 42.644 59.3779 42.5917C59.2602 42.5002 59.1294 42.4348 58.9986 42.3693L58.6585 42.1731C58.6323 42.1731 58.6192 42.147 58.5931 42.147C58.5015 42.1208 46.6111 38.1573 44.6882 37.5033C44.1257 37.3071 43.6417 37.2155 43.2362 37.2155C42.8307 37.2155 42.6214 37.3202 42.5168 37.3856C42.2813 37.0716 42.0066 36.7708 41.745 36.483C41.8366 36.313 41.9412 36.156 42.059 35.999C42.1767 35.829 42.1375 35.5935 41.9674 35.4758C41.902 35.4235 41.8235 35.4104 41.745 35.4104C41.6273 35.4104 41.5096 35.4627 41.4442 35.5674C41.3657 35.672 41.3003 35.7766 41.2349 35.8813C40.7117 35.2273 40.3061 34.5078 40.2931 33.5137C43.6679 26.6332 43.4717 20.8384 38.7495 14.7035C38.9458 14.3765 39.3513 13.9318 39.2074 13.5132C41.2218 11.1456 38.4879 6.94664 37.7162 4.53978C36.9706 1.98903 30.1947 3.96422 23.8767 5.14149C22.8564 4.19968 21.6007 3.49332 20.2272 3.10089C19.7693 1.29575 18.095 0.00075097 16.2245 0.00075097C11.934 -0.0777336 10.5343 6.0179 14.3932 7.83613C12.7711 8.59481 11.777 8.38552 11.2014 9.86365C10.5605 11.3156 10.5082 11.6819 11.1753 13.16C8.57221 15.3445 5.79909 18.0522 3.52304 22.0157C3.2091 23.1406 2.92132 26.2146 3.06521 27.6666L3.09137 27.6404C3.60152 30.2304 4.2294 31.5254 5.61596 31.8393C5.81217 37.6603 7.38186 43.8606 9.91953 48.8443C12.1302 51.8137 12.8758 58.511 12.6142 58.8119V59.0997C13.1112 59.2435 13.9877 59.6229 16.8262 59.6752C18.5921 59.7275 20.9205 59.3482 20.8681 58.6418C22.4117 58.7465 25.054 58.2756 24.9886 57.8177C25.4987 56.7713 24.5046 56.405 23.5759 56.1696C23.3927 55.751 22.9349 54.3906 23.4058 51.866C24.3215 51.3035 25.1717 50.7541 25.9827 50.2047L26.2836 50.3094V57.2683C26.2836 58.511 27.1207 59.6229 28.3111 59.9891L40.9209 63.7302C41.1826 63.8087 41.4703 63.848 41.745 63.848H41.7581C42.0459 63.848 42.3206 63.8087 42.5953 63.7172L55.4014 59.7537C56.5917 59.3874 57.3896 58.3017 57.3896 57.046V50.6233L59.0116 50.1393C59.4171 49.9954 59.7311 49.6946 59.875 49.2891C60.045 48.8312 59.9927 48.2949 59.7311 47.8109L58.2268 45.0771L59.9273 45.7442C60.0058 45.7834 60.0973 45.7965 60.1889 45.7965C60.3982 45.7965 60.5944 45.7049 60.7252 45.548C60.9214 45.3125 60.9607 44.9855 60.8037 44.7239L60.843 44.6977ZM42.8961 37.9611C42.9223 37.935 43.027 37.8957 43.2232 37.8957C43.4194 37.8957 43.8249 37.935 44.4397 38.1443C46.1009 38.7067 55.022 41.6892 56.0423 42.0293L57.5466 42.5263C57.2327 42.6571 56.9318 42.8533 56.6309 43.115L43.0139 38.5367L42.4514 38.3536L42.87 37.9611H42.8961ZM40.8425 36.5746C40.8294 36.6007 40.8163 36.64 40.8032 36.6661C40.7247 36.8493 40.8032 37.0716 40.9994 37.1632C41.0518 37.1894 41.1041 37.1894 41.1564 37.1894C41.2349 37.1894 41.3003 37.1632 41.3657 37.124C41.5881 37.3594 41.8104 37.6079 41.9936 37.8565L41.8235 38.0135L41.1826 37.4248C41.1172 37.3594 40.8948 37.2024 40.3977 37.2024C39.9007 37.2024 39.5213 37.3071 38.9458 37.4902C38.7103 37.5687 38.3048 37.6995 37.7946 37.8826C38.501 36.7708 39.1289 35.7112 39.7306 34.5732C39.8483 35.3711 40.3192 35.999 40.8425 36.5746ZM41.1433 38.3536L41.0648 38.3797C41.0648 38.3536 41.0648 38.3143 41.0779 38.2882L41.1433 38.3536ZM27.5786 42.0293C29.8415 41.2706 33.3603 40.1064 35.9633 39.23C36.5912 39.0207 37.1668 38.8245 37.6508 38.6675C38.344 38.432 38.8673 38.262 39.155 38.1573C39.7698 37.9481 40.1492 37.9088 40.3716 37.9088C40.3192 38.1573 40.28 38.4059 40.2538 38.6544L38.7234 39.1646L37.6377 39.5308H37.5984L36.3558 39.9494L35.1262 40.3418L29.8939 42.0293L26.8199 43.0234C26.5975 42.8403 26.3751 42.6964 26.1397 42.5917C26.1135 42.5786 26.0743 42.5656 26.0481 42.5525C26.2443 42.4871 27.5655 42.0423 27.5655 42.0423L27.5786 42.0293ZM26.8722 41.5322C28.6773 40.1849 29.2137 37.9481 26.4405 35.5281C29.9462 34.0369 34.9954 34.1677 38.2132 35.7636C37.7162 36.6138 37.1929 37.451 36.6305 38.2751C33.8966 39.1907 29.593 40.6296 26.8722 41.5322ZM39.0242 9.53663C39.7044 11.211 39.3643 13.317 37.6769 14.0103C37.0098 13.9318 36.3819 13.8664 35.7802 13.8271L37.4545 5.58624L39.0242 9.52355V9.53663ZM35.2701 3.96422L33.2033 13.801C32.0391 13.8533 30.9665 14.0233 29.9462 14.2849L32.3138 4.29124C33.6088 4.09503 34.6553 3.9773 35.2701 3.96422ZM20.3318 3.8465C21.3129 4.17351 22.2024 4.6575 22.9872 5.28538C22.2416 5.46851 21.5222 5.63856 20.8551 5.80861C20.6196 5.69088 20.3711 5.57316 20.0964 5.46851C20.2926 4.94528 20.3711 4.39589 20.3318 3.83342V3.8465ZM16.2114 0.680951C19.0891 0.576305 20.7504 4.35665 18.7098 6.39724C17.5456 6.72426 16.4599 7.06436 15.4658 7.39138C11.5939 6.54113 12.2217 0.641708 16.2114 0.66787V0.680951ZM12.5488 9.26193C12.6011 9.22269 14.3539 8.50325 15.7797 8.04542C18.095 7.11669 23.5497 5.86093 28.1803 4.98452L25.9173 16.0116C24.2168 17.045 22.5294 18.4315 20.5934 20.1844C14.4716 21.9634 13.3467 14.8343 11.5939 10.8316C11.2799 10.1253 11.7901 9.39274 12.5357 9.26193H12.5488ZM5.5898 30.9498V31.0414C4.98808 30.8452 3.99395 29.7857 3.74541 26.7509C3.68001 24.7496 4.11167 22.4866 4.19016 22.1988C4.8442 21.1 5.56364 20.0536 6.36156 19.0463C7.82661 17.1889 9.64484 15.3183 11.4369 13.8402C12.1956 15.4884 13.229 19.4257 14.7463 20.5637C11.293 22.8528 7.6958 26.3585 5.85141 29.6156C5.62904 30.0604 4.93576 30.6621 5.57672 30.9498H5.5898ZM20.7635 57.857C20.528 57.5038 19.9263 57.2814 19.39 57.1506C19.3246 56.9675 19.1807 56.6666 18.9976 55.9603C18.9322 55.6725 18.7752 54.7176 18.5005 55.2016C18.4351 56.1042 18.5005 57.1114 18.8275 57.7654C20.7896 58.1709 20.7242 58.6811 17.6633 58.8642C16.2245 58.995 13.7391 58.668 13.3336 58.4979C13.3336 57.7654 13.2813 55.7379 12.6534 53.318C13.2159 53.6711 13.4252 53.9327 13.6606 54.2205C13.8045 54.4037 13.8568 54.5606 14.0007 54.4429C14.1446 54.3252 13.6999 53.4749 13.5037 53.2264C11.2276 50.1916 7.91818 44.5277 6.6755 35.7112C6.41389 33.8538 6.29616 32.0617 6.32232 30.2435C8.19287 26.8817 11.6985 23.7031 14.9295 21.3355L14.8248 21.1916L14.9295 21.3224C15.0995 21.1916 15.2303 21.1 15.3481 21.0085C16.8916 22.068 18.9976 22.4343 20.7373 21.6756C26.3621 16.6002 29.5538 14.8082 37.206 15.7238C37.5854 15.593 37.9255 15.4099 38.2263 15.1483C43.1185 21.1523 42.713 28.1767 38.5795 35.0834C35.1131 33.3175 29.5014 33.2259 25.7473 34.9787C24.8839 34.4162 23.8636 33.8538 22.621 33.5922C20.1879 33.0689 20.4888 30.6621 20.2533 30.6882C20.0048 30.7144 19.9263 31.5516 19.9917 32.0617C20.1618 33.4352 20.9597 33.9584 22.3855 34.3639C24.8316 35.0572 28.5727 37.3463 27.2646 39.9494C25.7211 42.3301 21.1952 42.6833 18.9453 40.8651C15.8451 38.262 15.5704 33.6968 16.3422 30.5836C16.3945 30.3743 16.5776 30.0604 16.3684 30.0342C16.146 29.9949 15.505 31.1461 15.335 32.3756C14.851 35.8028 15.5312 38.7983 18.1212 41.2444C15.8582 44.58 12.2872 53.4226 18.4089 53.6188C19.8478 53.6188 20.8681 53.0694 22.5948 52.2192C22.1893 55.3324 22.8826 56.3396 23.1049 56.732C26.3621 57.4122 22.6864 57.8962 20.7504 57.8308L20.7635 57.857ZM18.6182 52.9255C13.1112 52.9648 16.8262 44.58 18.7229 41.7153C20.2141 42.8272 22.2547 43.0757 24.0729 42.7225L21.6268 44.6716C21.3652 44.8809 21.2736 45.234 21.4044 45.5611C21.5222 45.8488 21.7969 46.0189 22.0977 46.0189C22.3986 46.0189 22.1631 46.0189 22.1893 46.0189C22.2155 46.0189 22.2285 46.0189 22.2547 46.0058L25.3025 45.0771L23.9944 47.4316C23.7328 47.9025 23.6674 48.4388 23.8375 48.8967C23.9814 49.3022 24.2953 49.603 24.6877 49.76L25.1848 49.93C22.9872 51.3689 20.7635 52.4285 18.6182 52.9255ZM26.7152 49.6946L26.4667 49.6161L25.9173 49.433L24.9232 49.1059C24.7139 49.0275 24.5569 48.8705 24.4784 48.6612C24.3869 48.3996 24.4261 48.0726 24.5831 47.7717L26.5321 44.253L26.5713 44.1745L26.7283 43.8998L26.8199 43.926L27.1077 44.0306L27.4608 44.1483L27.814 44.2661L30.7964 45.2864L31.6074 45.5611L41.2087 48.8574L39.1943 52.4939C38.9327 52.9517 38.4356 53.2656 37.9516 53.2656C37.4676 53.2656 37.7031 53.2395 37.5984 53.2002L26.8984 49.7469L26.7022 49.6815L26.7152 49.6946ZM41.418 63.0893C41.3134 63.0762 41.2218 63.05 41.1302 63.0239L28.5204 59.2828C27.6178 59.0212 26.9899 58.1709 26.9899 57.2422V50.5187L37.3761 53.8673C37.5592 53.9327 37.7554 53.972 37.9647 53.972C38.6972 53.972 39.4559 53.5142 39.8222 52.847L41.418 49.9693V63.1024V63.0893ZM41.8235 48.151L32.2222 44.9593L31.4112 44.6846L28.3372 43.6643L27.9317 43.5335L30.3386 42.7225H30.3648L30.9142 42.5263L31.2019 42.4348L34.3282 41.3883L35.6232 40.9566L37.9124 40.1849L38.7103 39.9232L40.1099 39.4654L40.3192 39.4C40.3192 39.4131 40.3323 39.4262 40.3454 39.4393C40.4108 39.5177 40.5024 39.557 40.607 39.557C40.8032 39.557 40.9733 39.3869 40.9864 39.1907L41.7581 38.9422L41.9936 39.0207L42.7915 39.2823L55.4668 43.4812L55.8853 43.6382L44.8059 47.2092L41.9412 48.0987L41.8104 48.138L41.8235 48.151ZM56.7094 57.0198C56.7094 57.9616 56.1077 58.7726 55.2051 59.0604L42.3991 63.0239C42.3075 63.05 42.2029 63.0762 42.1113 63.0893V49.7861L43.8249 52.8863C44.2042 53.5796 44.976 54.0505 45.7216 54.0505C46.4672 54.0505 46.1009 54.0243 46.271 53.9589L56.7094 50.8064V57.0198ZM59.1425 48.1118C59.3125 48.4127 59.3517 48.7397 59.2471 49.0013C59.1686 49.2106 59.0116 49.3545 58.8154 49.433L46.0748 53.2787H46.0486C45.944 53.318 45.8393 53.331 45.7216 53.331C45.2245 53.331 44.7144 53.004 44.4528 52.5331L42.3598 48.7397L45.0937 47.8633L56.4478 44.3315L57.2327 44.6454L59.1425 48.1118Z" fill="#7A7A83"/>
<path d="M48.9655 25.0243C48.9262 25.1158 48.9262 25.2205 48.9655 25.312C49.1094 25.6652 49.214 26.0315 49.2794 26.3978C49.3056 26.5809 49.4625 26.6986 49.6457 26.6986C49.8288 26.6986 49.6849 26.6986 49.7111 26.6986C49.8157 26.6855 49.8942 26.6201 49.9465 26.5416C49.9988 26.4632 50.025 26.3585 50.0119 26.2669C49.9334 25.8484 49.8157 25.4298 49.6457 25.0243C49.5933 24.8804 49.4495 24.7888 49.3056 24.7888C49.1617 24.7888 49.214 24.7888 49.1617 24.815C49.0701 24.8542 48.9916 24.9196 48.9524 25.0112L48.9655 25.0243Z" fill="#7A7A83"/>
<path d="M48.3899 31.2638C48.4553 31.3161 48.5338 31.3292 48.6123 31.3292C48.73 31.3292 48.8477 31.2769 48.9131 31.1722C49.1617 30.819 49.384 30.4528 49.5541 30.0604C49.5933 29.9688 49.5933 29.8641 49.5541 29.7726C49.5148 29.681 49.4494 29.6025 49.3579 29.5633C49.3055 29.5371 49.2532 29.524 49.2009 29.524C49.057 29.524 48.9131 29.6156 48.8608 29.7464C48.7038 30.0996 48.5076 30.4266 48.2852 30.7275C48.1675 30.8975 48.2068 31.133 48.3637 31.2507L48.3899 31.2638Z" fill="#7A7A83"/>
<path d="M44.6095 33.9714C44.6618 33.9714 44.7142 33.9714 44.7534 33.9453L45.8653 33.4613C46.0484 33.3828 46.14 33.1604 46.0615 32.9642C45.9961 32.8334 45.8653 32.7418 45.7214 32.7418C45.5775 32.7418 45.6167 32.7418 45.5775 32.768L44.4656 33.252C44.2825 33.3305 44.1909 33.5528 44.2694 33.749C44.3348 33.8798 44.4656 33.9714 44.6095 33.9714Z" fill="#7A7A83"/>
<path d="M47.8015 31.4862C47.7099 31.4862 47.6183 31.5255 47.5529 31.5778C47.2782 31.8263 46.9643 32.0618 46.6373 32.258C46.4541 32.3626 46.4018 32.5981 46.5065 32.7681C46.5719 32.8859 46.7027 32.9513 46.8335 32.9513C46.9643 32.9513 46.9643 32.9382 47.0297 32.8989C47.396 32.6766 47.7491 32.415 48.0631 32.1272C48.1416 32.0618 48.1808 31.9702 48.1808 31.8656C48.1808 31.7609 48.1546 31.6694 48.0892 31.5909C48.0238 31.5124 47.9192 31.4731 47.8145 31.4731L47.8015 31.4862Z" fill="#7A7A83"/>
<path d="M49.9597 28.8308C50.0513 28.4122 50.1036 27.9806 50.1167 27.5489C50.1298 27.1172 50.0775 27.3527 50.0121 27.2873C49.9467 27.2088 49.8551 27.1696 49.7504 27.1696C49.5412 27.1696 49.3711 27.3396 49.3711 27.5358C49.3711 27.9152 49.3188 28.2945 49.2272 28.6608C49.188 28.857 49.3057 29.0663 49.515 29.1055C49.5412 29.1055 49.5673 29.1055 49.5935 29.1055C49.7635 29.1055 49.9205 28.9878 49.9597 28.8177V28.8308Z" fill="#7A7A83"/>
<path d="M41.4049 41.4144C41.261 41.0612 41.1563 40.695 41.0779 40.3287C41.0386 40.1456 40.8947 40.0278 40.7116 40.0278C40.5285 40.0278 40.6724 40.0278 40.6462 40.0278C40.45 40.0671 40.3061 40.2633 40.3453 40.4595C40.4238 40.8781 40.5416 41.2967 40.7116 41.7022C40.7639 41.8461 40.9078 41.9376 41.0517 41.9376C41.1956 41.9376 41.1433 41.9376 41.1956 41.9115C41.3918 41.833 41.4834 41.6106 41.4049 41.4275V41.4144Z" fill="#7A7A83"/>
<path d="M42.1768 34.8479C42.1768 34.9526 42.2029 35.0441 42.2814 35.1226C42.3468 35.2011 42.4515 35.2403 42.5561 35.2403C42.6607 35.2403 42.7392 35.2011 42.8046 35.1357C43.0793 34.8741 43.3933 34.6517 43.7203 34.4555C43.9034 34.3508 43.9557 34.1154 43.8511 33.9453C43.7857 33.8276 43.6549 33.7622 43.5241 33.7622C43.3933 33.7622 43.3933 33.7753 43.3279 33.8145C42.9616 34.0369 42.6084 34.2985 42.2945 34.5863C42.216 34.6517 42.1768 34.7433 42.1768 34.8479Z" fill="#7A7A83"/>
<path d="M42.5299 43.1411C42.3206 42.9187 42.1244 42.6702 41.9413 42.4086C41.8759 42.3039 41.7581 42.2385 41.6273 42.2385C41.4965 42.2385 41.4834 42.2647 41.418 42.3039C41.3395 42.3563 41.2741 42.4478 41.2611 42.5394C41.248 42.644 41.2611 42.7356 41.3134 42.8141C41.5096 43.1019 41.732 43.3766 41.9674 43.6382L42.1244 43.7951C42.1898 43.8736 42.2944 43.9129 42.3991 43.9129C42.5037 43.9129 42.5822 43.8736 42.6607 43.8082C42.7392 43.7428 42.7784 43.6512 42.7784 43.5466C42.7784 43.442 42.7392 43.3504 42.6738 43.285L42.5168 43.128L42.5299 43.1411Z" fill="#7A7A83"/>
<path d="M48.7301 24.4617C48.8086 24.4617 48.874 24.4356 48.9394 24.3963C49.1094 24.2786 49.1617 24.0432 49.044 23.8731C48.9263 23.7031 48.8086 23.533 48.6647 23.376C48.5993 23.2845 48.4815 23.2452 48.3769 23.2452C48.2723 23.2452 48.2069 23.2714 48.1414 23.3368C47.9845 23.4676 47.9583 23.7031 48.0891 23.86C48.2069 24.0039 48.3115 24.1478 48.4161 24.3048C48.4815 24.4094 48.5993 24.4748 48.7301 24.4748V24.4617Z" fill="#7A7A83"/>
</svg>
