<svg width="16" height="16" viewBox="0 0 16 16" fill="none" xmlns="http://www.w3.org/2000/svg">
<path d="M14.8053 7.92499C13.9103 6.78499 12.5953 5.93999 11.0803 5.53499C10.4453 4.48999 9.31032 3.71999 7.70532 3.23999C7.33532 3.12999 6.94032 3.23499 6.68032 3.51499C6.42032 3.78999 6.34032 4.18499 6.47032 4.53499C6.62032 4.95499 6.66032 5.30499 6.58532 5.61999C5.60032 5.92499 4.70532 6.42499 3.97032 7.07999L2.27032 5.50499C2.01032 5.26999 1.63532 5.23999 1.34032 5.43499C1.05032 5.62999 0.930318 5.97999 1.04032 6.29999C1.52532 7.77499 1.52532 9.20499 1.04032 10.68C0.930318 11.01 1.05032 11.355 1.34032 11.55C1.63532 11.745 2.01032 11.715 2.27532 11.475L3.98532 9.88999C5.02532 10.815 6.37032 11.43 7.84032 11.645L7.94032 12.05C8.03032 12.395 8.29032 12.665 8.63032 12.765C8.72532 12.79 8.82032 12.805 8.91532 12.805C9.16032 12.805 9.40032 12.71 9.58532 12.54L10.6553 11.565C12.3603 11.215 13.8303 10.335 14.8053 9.07999L14.8103 9.07499C15.0653 8.73499 15.0653 8.26499 14.8053 7.92499ZM12.0103 8.49999C11.7353 8.49999 11.5053 8.27499 11.5053 7.99999C11.5053 7.72499 11.7303 7.49999 12.0053 7.49999H12.0103C12.2853 7.49999 12.5103 7.72499 12.5103 7.99999C12.5103 8.27499 12.2853 8.49999 12.0103 8.49999Z" fill="#818CF8"/>
</svg>
