<svg width="16" height="16" viewBox="0 0 16 16" fill="none" xmlns="http://www.w3.org/2000/svg">
<path d="M13.1791 10.1856C13.1791 10.1856 12.3103 5.16 8.49908 3.8048C8.31988 3.4384 8.25268 3.0672 8.28948 2.688C8.31828 2.3888 7.96468 2.2112 7.74708 2.4176L6.63028 3.4736C6.61268 3.4736 6.59508 3.4736 6.57748 3.472C1.49428 3.4128 1.42228 7.5584 1.42228 7.5584C1.42228 7.5584 0.521484 8.22559 0.521484 8.8464C0.521484 9.4672 1.85428 9.2272 3.64948 8.984C5.44468 8.7424 9.02068 7.79359 12.3039 10.6784C12.3039 10.6784 12.3119 12.4112 11.9023 13.4224C11.6319 14.0912 13.5663 13.2912 13.6799 12.2384C13.6799 12.2384 14.6831 12.3024 15.4079 11.5168C15.8975 10.9872 13.6959 11.4448 13.1791 10.184V10.1856Z" fill="#60A5FA"/>
<path d="M12.3039 10.68C12.2143 9.4176 9.7839 7.9248 6.3615 7.9248C3.8703 7.9248 2.3711 8.424 0.579102 9.0432C0.851102 9.4464 2.0719 9.3584 3.6495 9.1456C5.4447 8.904 9.3151 8.016 12.3039 10.68Z" fill="#60A5FA"/>
<path d="M8.84023 7.76002C8.77943 7.32482 8.37463 7.03042 7.94103 7.10722L6.99223 7.27522C6.55863 7.35202 6.47703 7.64962 6.81143 7.93602L8.53623 9.41602C8.87063 9.70242 9.09303 9.58082 9.03223 9.14402L8.83863 7.75842L8.84023 7.76002Z" fill="#60A5FA"/>
<path d="M3.31865 6.82078C3.52808 6.82078 3.69785 6.651 3.69785 6.44158C3.69785 6.23215 3.52808 6.06238 3.31865 6.06238C3.10923 6.06238 2.93945 6.23215 2.93945 6.44158C2.93945 6.651 3.10923 6.82078 3.31865 6.82078Z" fill="#0A0A0B"/>
</svg>
