<svg width="64" height="64" viewBox="0 0 64 64" fill="none" xmlns="http://www.w3.org/2000/svg">
<path d="M45.9964 24.1348C46.0618 24.1479 46.1403 24.161 46.2319 24.161C46.4673 24.161 46.7813 24.0694 47.0821 23.6901C47.1606 23.5854 47.2391 23.4677 47.2914 23.363C47.553 23.4023 47.8016 23.363 47.9847 23.2061C48.1678 23.0491 48.2594 22.8136 48.2594 22.5389C48.9134 22.3166 49.2797 21.9111 49.2404 21.3878C49.175 20.603 48.364 20.0405 47.4353 20.119C47.0298 20.1582 46.6897 20.2498 46.4281 20.3937C46.1926 20.1844 45.8525 20.1713 45.6171 20.3806C45.3816 20.5768 45.3424 20.93 45.4993 21.1916C45.3162 21.4271 45.1592 21.741 45.0677 22.1334C44.963 22.552 44.9892 22.9968 45.1462 23.363C45.3162 23.7555 45.6301 24.0302 46.0095 24.1217L45.9964 24.1348ZM47.4876 20.7992C48.037 20.7469 48.5341 21.0477 48.5733 21.4532C48.5864 21.6364 48.3902 21.7803 48.1155 21.8849C48.037 21.7018 47.9193 21.5186 47.7754 21.3486C47.5923 21.1393 47.383 20.9693 47.1737 20.8515C47.2783 20.8254 47.383 20.8123 47.4876 20.7992ZM45.6955 22.3035C45.7217 22.1988 45.761 22.0942 45.7871 22.0026C45.8656 22.2381 45.9964 22.4605 46.1795 22.6828C46.3234 22.8529 46.4935 22.9968 46.6635 23.1145C46.6243 23.1799 46.585 23.2322 46.5458 23.2845C46.3496 23.5331 46.2057 23.4938 46.1534 23.4808C45.9702 23.4284 45.8264 23.2976 45.7348 23.0883C45.6301 22.8529 45.6171 22.5782 45.6825 22.3035H45.6955Z" fill="#7A7A83"/>
<path d="M16.2112 6.17482C17.2707 6.17482 18.1602 5.37689 18.2779 4.33043C18.4087 3.19241 17.5846 2.15903 16.4466 2.02822C16.3681 2.02822 16.2896 2.01514 16.2112 2.01514C15.1516 2.01514 14.2621 2.81306 14.1444 3.85952C14.079 4.422 14.236 4.95831 14.5891 5.38997C14.9292 5.82164 15.4263 6.09634 15.9888 6.16174C16.0673 6.16174 16.1458 6.17482 16.2242 6.17482H16.2112Z" fill="#7A7A83"/>
<path d="M37.023 24.7365C37.18 24.7365 37.35 24.7234 37.507 24.6842C38.9851 24.3703 40.0054 22.6698 39.7831 20.9039C39.5869 19.2949 38.4619 18.1307 37.1015 18.1307C35.7411 18.1307 36.7745 18.1438 36.6175 18.1831C35.1394 18.497 34.1191 20.1975 34.3415 21.9634C34.5377 23.5723 35.6626 24.7365 37.023 24.7365ZM36.7745 18.9025C36.8791 18.8763 36.9969 18.8633 37.1015 18.8633C38.0302 18.8633 38.8151 19.6612 39.0244 20.7861C38.7366 20.3675 38.318 20.0929 37.8471 20.0536C37.8079 20.0536 37.7817 20.0536 37.7425 20.0536C37.6247 20.0536 37.507 20.0667 37.3893 20.0929C37.2454 20.1321 37.1015 20.1844 36.9707 20.2629C36.3951 20.603 36.0158 21.3094 36.0027 22.0811C36.0027 22.6959 36.212 23.2715 36.5914 23.6639C36.7352 23.8078 36.8922 23.9255 37.0623 24.004C37.0492 24.004 37.0361 24.004 37.023 24.004C36.042 24.004 35.2179 23.1145 35.0609 21.8718C34.8909 20.4591 35.6495 19.1249 36.7614 18.8894L36.7745 18.9025Z" fill="#7A7A83"/>
<path d="M29.3184 25.1682C29.4754 25.1682 29.6455 25.1551 29.8024 25.1158C31.2806 24.8019 32.3008 23.1014 32.0785 21.3355C31.8823 19.7266 30.7573 18.5624 29.3969 18.5624C28.0365 18.5624 29.0699 18.5755 28.9129 18.6147C27.4348 18.9286 26.4145 20.6291 26.6369 22.395C26.8331 24.004 27.958 25.1682 29.3184 25.1682ZM29.0699 19.3341C29.1745 19.308 29.2923 19.2949 29.3969 19.2949C30.3257 19.2949 31.1105 20.0928 31.3198 21.2178C31.032 20.7992 30.6134 20.5245 30.1425 20.4852C30.1033 20.4852 30.0771 20.4852 30.0379 20.4852C29.9201 20.4852 29.8024 20.4983 29.6847 20.5245C29.5408 20.5637 29.3969 20.6161 29.2661 20.6945C28.6906 21.0346 28.3112 21.741 28.2981 22.5128C28.2981 23.1276 28.5074 23.7031 28.8868 24.0955C29.0307 24.2394 29.1876 24.3572 29.3577 24.4356C29.3446 24.4356 29.3315 24.4356 29.3184 24.4356C28.3374 24.4356 27.5133 23.5461 27.3563 22.3035C27.1863 20.8908 27.945 19.5565 29.0568 19.3211L29.0699 19.3341Z" fill="#7A7A83"/>
<path d="M32.0652 27.0256C32.1306 27.078 32.2091 27.1041 32.2876 27.1041C32.4053 27.1041 32.5099 27.0518 32.5753 26.9602C32.8108 26.6594 33.3079 26.1623 33.975 26.1623C34.6421 26.1623 34.2889 26.1885 34.459 26.2408C34.6944 26.3193 34.786 26.4501 34.7468 26.6463C34.7075 26.8425 34.5244 27.0518 34.2497 27.1172C34.2235 27.1172 34.1843 27.1172 34.145 27.1172C34.0796 27.1172 34.0404 27.1172 34.0273 27.1172H33.9488H33.9357C33.8573 27.1434 33.7788 27.1957 33.7395 27.2611L33.6872 27.3134V27.3396H33.6741V27.4704C33.6741 27.4704 33.6741 27.4965 33.6741 27.5096V27.5227V27.575C33.6872 27.575 33.6872 27.575 33.6872 27.575V27.6012C33.6872 27.6274 33.6872 27.6274 33.6872 27.6404V27.6666C33.7003 27.6666 33.7134 27.6797 33.7134 27.6797L33.7657 27.732L33.7788 27.7451H33.8049C33.8049 27.7582 33.8049 27.7582 33.8049 27.7582C33.8049 27.7582 33.818 27.7582 33.8311 27.7712H33.8573V27.7843L33.8965 27.8105H33.9357H34.0404C34.0666 27.8105 34.1058 27.8105 34.145 27.8105C34.3936 27.8366 34.6029 27.9151 34.6944 28.0067C34.7206 28.0329 34.7337 28.059 34.7337 28.1244C34.7206 28.2945 34.5898 28.4514 34.3936 28.5692C34.302 28.6215 34.0927 28.7131 33.818 28.7131C33.5956 28.7131 33.3602 28.6607 33.1509 28.543C33.0986 28.5168 33.0332 28.5038 32.9678 28.5038C32.8239 28.5038 32.7062 28.5822 32.6407 28.7C32.5884 28.7915 32.5884 28.8831 32.6146 28.9878C32.6407 29.0793 32.7062 29.1578 32.7977 29.2101C33.1117 29.3802 33.4648 29.4717 33.818 29.4717C34.1712 29.4717 34.459 29.3933 34.7468 29.2494C35.1784 29.0139 35.44 28.6477 35.4793 28.2029C35.4793 28.1637 35.4793 28.1375 35.4793 28.0983C35.4793 27.889 35.4008 27.6928 35.2569 27.5358L35.0999 27.3657C35.2569 27.1957 35.3615 26.9864 35.4139 26.7509C35.4139 26.6986 35.427 26.6332 35.44 26.594C35.4793 26.0707 35.1784 25.6652 34.629 25.4821C34.3805 25.4036 34.145 25.3644 33.9096 25.3644C32.9285 25.3644 32.2483 26.0446 31.9213 26.4501C31.8036 26.6071 31.8297 26.8425 31.9867 26.9733L32.0652 27.0256Z" fill="#7A7A83"/>
<path d="M60.8427 44.6977L60.1102 43.4158C59.9794 43.1934 59.8224 42.9972 59.6393 42.8141C59.6131 42.7749 59.587 42.7356 59.5477 42.6964C59.5477 42.6964 59.4823 42.644 59.3777 42.5917C59.2599 42.5002 59.1291 42.4348 58.9983 42.3693L58.6582 42.1731C58.6321 42.1731 58.619 42.147 58.5928 42.147C58.5013 42.1208 46.6108 38.1573 44.688 37.5033C44.1255 37.3071 43.6415 37.2155 43.236 37.2155C42.8305 37.2155 42.6212 37.3202 42.5166 37.3856C42.2811 37.0716 42.0064 36.7708 41.7448 36.483C41.8364 36.313 41.941 36.156 42.0587 35.999C42.1765 35.829 42.1372 35.5935 41.9672 35.4758C41.9018 35.4235 41.8233 35.4104 41.7448 35.4104C41.6271 35.4104 41.5093 35.4627 41.4439 35.5674C41.3655 35.672 41.3 35.7766 41.2346 35.8813C40.7114 35.2273 40.3059 34.5078 40.2928 33.5137C43.6677 26.6332 43.4715 20.8384 38.7493 14.7035C38.9455 14.3765 39.351 13.9318 39.2071 13.5132C41.2216 11.1456 38.4877 6.94664 37.7159 4.53978C36.9703 1.98903 30.1945 3.96422 23.8765 5.14149C22.8562 4.19968 21.6004 3.49332 20.2269 3.10089C19.7691 1.29575 18.0948 0.00075097 16.2242 0.00075097C11.9337 -0.0777336 10.5341 6.0179 14.3929 7.83613C12.7709 8.59481 11.7768 8.38552 11.2012 9.86365C10.5602 11.3156 10.5079 11.6819 11.175 13.16C8.57197 15.3445 5.79885 18.0522 3.52279 22.0157C3.20886 23.1406 2.92108 26.2146 3.06497 27.6666L3.09113 27.6404C3.60128 30.2304 4.22916 31.5254 5.61572 31.8393C5.81193 37.6603 7.38162 43.8606 9.91929 48.8443C12.1299 51.8137 12.8755 58.511 12.6139 58.8119V59.0997C13.111 59.2435 13.9874 59.6229 16.8259 59.6752C18.5918 59.7275 20.9202 59.3482 20.8679 58.6418C22.4114 58.7465 25.0537 58.2756 24.9883 57.8177C25.4985 56.7713 24.5043 56.405 23.5756 56.1696C23.3925 55.751 22.9346 54.3906 23.4056 51.866C24.3212 51.3035 25.1715 50.7541 25.9825 50.2047L26.2833 50.3094V57.2683C26.2833 58.511 27.1205 59.6229 28.3108 59.9891L40.9207 63.7302C41.1823 63.8087 41.4701 63.848 41.7448 63.848H41.7579C42.0457 63.848 42.3203 63.8087 42.595 63.7172L55.4011 59.7537C56.5915 59.3874 57.3894 58.3017 57.3894 57.046V50.6233L59.0114 50.1393C59.4169 49.9954 59.7308 49.6946 59.8747 49.2891C60.0448 48.8312 59.9925 48.2949 59.7308 47.8109L58.2266 45.0771L59.9271 45.7442C60.0055 45.7834 60.0971 45.7965 60.1887 45.7965C60.398 45.7965 60.5942 45.7049 60.725 45.548C60.9212 45.3125 60.9604 44.9855 60.8035 44.7239L60.8427 44.6977ZM42.8959 37.9611C42.9221 37.935 43.0267 37.8957 43.2229 37.8957C43.4191 37.8957 43.8246 37.935 44.4394 38.1443C46.1007 38.7067 55.0218 41.6892 56.0421 42.0293L57.5464 42.5263C57.2324 42.6571 56.9316 42.8533 56.6307 43.115L43.0136 38.5367L42.4512 38.3536L42.8697 37.9611H42.8959ZM40.8422 36.5746C40.8291 36.6007 40.8161 36.64 40.803 36.6661C40.7245 36.8493 40.803 37.0716 40.9992 37.1632C41.0515 37.1894 41.1038 37.1894 41.1562 37.1894C41.2346 37.1894 41.3 37.1632 41.3654 37.124C41.5878 37.3594 41.8102 37.6079 41.9933 37.8565L41.8233 38.0135L41.1823 37.4248C41.1169 37.3594 40.8945 37.2024 40.3975 37.2024C39.9004 37.2024 39.5211 37.3071 38.9455 37.4902C38.7101 37.5687 38.3046 37.6995 37.7944 37.8826C38.5008 36.7708 39.1286 35.7112 39.7304 34.5732C39.8481 35.3711 40.319 35.999 40.8422 36.5746ZM41.1431 38.3536L41.0646 38.3797C41.0646 38.3536 41.0646 38.3143 41.0777 38.2882L41.1431 38.3536ZM27.5783 42.0293C29.8413 41.2706 33.36 40.1064 35.9631 39.23C36.591 39.0207 37.1665 38.8245 37.6505 38.6675C38.3438 38.432 38.867 38.262 39.1548 38.1573C39.7696 37.9481 40.1489 37.9088 40.3713 37.9088C40.319 38.1573 40.2797 38.4059 40.2536 38.6544L38.7231 39.1646L37.6374 39.5308H37.5982L36.3555 39.9494L35.1259 40.3418L29.8936 42.0293L26.8196 43.0234C26.5973 42.8403 26.3749 42.6964 26.1394 42.5917C26.1133 42.5786 26.074 42.5656 26.0479 42.5525C26.2441 42.4871 27.5652 42.0423 27.5652 42.0423L27.5783 42.0293ZM26.872 41.5322C28.6771 40.1849 29.2134 37.9481 26.4403 35.5281C29.9459 34.0369 34.9951 34.1677 38.213 35.7636C37.7159 36.6138 37.1927 37.451 36.6302 38.2751C33.8963 39.1907 29.5928 40.6296 26.872 41.5322ZM39.024 9.53663C39.7042 11.211 39.3641 13.317 37.6767 14.0103C37.0096 13.9318 36.3817 13.8664 35.78 13.8271L37.4543 5.58624L39.024 9.52355V9.53663ZM35.2698 3.96422L33.2031 13.801C32.0389 13.8533 30.9662 14.0233 29.9459 14.2849L32.3136 4.29124C33.6086 4.09503 34.655 3.9773 35.2698 3.96422ZM20.3316 3.8465C21.3126 4.17351 22.2021 4.6575 22.987 5.28538C22.2414 5.46851 21.5219 5.63856 20.8548 5.80861C20.6194 5.69088 20.3708 5.57316 20.0961 5.46851C20.2923 4.94528 20.3708 4.39589 20.3316 3.83342V3.8465ZM16.2111 0.680951C19.0889 0.576305 20.7502 4.35665 18.7096 6.39724C17.5454 6.72426 16.4597 7.06436 15.4655 7.39138C11.5936 6.54113 12.2215 0.641708 16.2111 0.66787V0.680951ZM12.5485 9.26193C12.6008 9.22269 14.3537 8.50325 15.7795 8.04542C18.0948 7.11669 23.5494 5.86093 28.18 4.98452L25.9171 16.0116C24.2166 17.045 22.5291 18.4315 20.5932 20.1844C14.4714 21.9634 13.3464 14.8343 11.5936 10.8316C11.2797 10.1253 11.7898 9.39274 12.5354 9.26193H12.5485ZM5.58956 30.9498V31.0414C4.98784 30.8452 3.9937 29.7857 3.74517 26.7509C3.67976 24.7496 4.11143 22.4866 4.18991 22.1988C4.84395 21.1 5.56339 20.0536 6.36132 19.0463C7.82637 17.1889 9.64459 15.3183 11.4367 13.8402C12.1953 15.4884 13.2287 19.4257 14.7461 20.5637C11.2928 22.8528 7.69556 26.3585 5.85117 29.6156C5.6288 30.0604 4.93552 30.6621 5.57647 30.9498H5.58956ZM20.7632 57.857C20.5278 57.5038 19.9261 57.2814 19.3898 57.1506C19.3244 56.9675 19.1805 56.6666 18.9973 55.9603C18.9319 55.6725 18.775 54.7176 18.5003 55.2016C18.4349 56.1042 18.5003 57.1114 18.8273 57.7654C20.7894 58.1709 20.724 58.6811 17.6631 58.8642C16.2242 58.995 13.7389 58.668 13.3334 58.4979C13.3334 57.7654 13.281 55.7379 12.6532 53.318C13.2156 53.6711 13.4249 53.9327 13.6604 54.2205C13.8043 54.4037 13.8566 54.5606 14.0005 54.4429C14.1444 54.3252 13.6996 53.4749 13.5034 53.2264C11.2274 50.1916 7.91793 44.5277 6.67526 35.7112C6.41364 33.8538 6.29592 32.0617 6.32208 30.2435C8.19263 26.8817 11.6983 23.7031 14.9292 21.3355L14.8246 21.1916L14.9292 21.3224C15.0993 21.1916 15.2301 21.1 15.3478 21.0085C16.8913 22.068 18.9973 22.4343 20.7371 21.6756C26.3618 16.6002 29.5535 14.8082 37.2058 15.7238C37.5851 15.593 37.9252 15.4099 38.2261 15.1483C43.1183 21.1523 42.7128 28.1767 38.5792 35.0834C35.1128 33.3175 29.5012 33.2259 25.747 34.9787C24.8837 34.4162 23.8634 33.8538 22.6207 33.5922C20.1877 33.0689 20.4885 30.6621 20.2531 30.6882C20.0046 30.7144 19.9261 31.5516 19.9915 32.0617C20.1615 33.4352 20.9595 33.9584 22.3853 34.3639C24.8314 35.0572 28.5725 37.3463 27.2644 39.9494C25.7209 42.3301 21.1949 42.6833 18.945 40.8651C15.8449 38.262 15.5702 33.6968 16.3419 30.5836C16.3943 30.3743 16.5774 30.0604 16.3681 30.0342C16.1457 29.9949 15.5048 31.1461 15.3347 32.3756C14.8507 35.8028 15.5309 38.7983 18.1209 41.2444C15.858 44.58 12.2869 53.4226 18.4087 53.6188C19.8476 53.6188 20.8679 53.0694 22.5945 52.2192C22.189 55.3324 22.8823 56.3396 23.1047 56.732C26.3618 57.4122 22.6861 57.8962 20.7502 57.8308L20.7632 57.857ZM18.618 52.9255C13.111 52.9648 16.8259 44.58 18.7226 41.7153C20.2139 42.8272 22.2544 43.0757 24.0727 42.7225L21.6266 44.6716C21.365 44.8809 21.2734 45.234 21.4042 45.5611C21.5219 45.8488 21.7966 46.0189 22.0975 46.0189C22.3983 46.0189 22.1629 46.0189 22.189 46.0189C22.2152 46.0189 22.2283 46.0189 22.2544 46.0058L25.3023 45.0771L23.9942 47.4316C23.7326 47.9025 23.6672 48.4388 23.8372 48.8967C23.9811 49.3022 24.295 49.603 24.6875 49.76L25.1845 49.93C22.987 51.3689 20.7632 52.4285 18.618 52.9255ZM26.715 49.6946L26.4665 49.6161L25.9171 49.433L24.9229 49.1059C24.7136 49.0275 24.5567 48.8705 24.4782 48.6612C24.3866 48.3996 24.4259 48.0726 24.5828 47.7717L26.5319 44.253L26.5711 44.1745L26.7281 43.8998L26.8196 43.926L27.1074 44.0306L27.4606 44.1483L27.8138 44.2661L30.7962 45.2864L31.6072 45.5611L41.2085 48.8574L39.194 52.4939C38.9324 52.9517 38.4354 53.2656 37.9514 53.2656C37.4674 53.2656 37.7028 53.2395 37.5982 53.2002L26.8981 49.7469L26.7019 49.6815L26.715 49.6946ZM41.4178 63.0893C41.3131 63.0762 41.2216 63.05 41.13 63.0239L28.5201 59.2828C27.6176 59.0212 26.9897 58.1709 26.9897 57.2422V50.5187L37.3758 53.8673C37.5589 53.9327 37.7552 53.972 37.9645 53.972C38.697 53.972 39.4557 53.5142 39.8219 52.847L41.4178 49.9693V63.1024V63.0893ZM41.8233 48.151L32.222 44.9593L31.411 44.6846L28.337 43.6643L27.9315 43.5335L30.3384 42.7225H30.3645L30.9139 42.5263L31.2017 42.4348L34.328 41.3883L35.623 40.9566L37.9121 40.1849L38.7101 39.9232L40.1097 39.4654L40.319 39.4C40.319 39.4131 40.3321 39.4262 40.3451 39.4393C40.4106 39.5177 40.5021 39.557 40.6068 39.557C40.803 39.557 40.973 39.3869 40.9861 39.1907L41.7579 38.9422L41.9933 39.0207L42.7913 39.2823L55.4665 43.4812L55.8851 43.6382L44.8057 47.2092L41.941 48.0987L41.8102 48.138L41.8233 48.151ZM56.7092 57.0198C56.7092 57.9616 56.1075 58.7726 55.2049 59.0604L42.3988 63.0239C42.3073 63.05 42.2026 63.0762 42.1111 63.0893V49.7861L43.8246 52.8863C44.204 53.5796 44.9757 54.0505 45.7213 54.0505C46.4669 54.0505 46.1007 54.0243 46.2707 53.9589L56.7092 50.8064V57.0198ZM59.1422 48.1118C59.3123 48.4127 59.3515 48.7397 59.2469 49.0013C59.1684 49.2106 59.0114 49.3545 58.8152 49.433L46.0745 53.2787H46.0484C45.9437 53.318 45.8391 53.331 45.7213 53.331C45.2243 53.331 44.7141 53.004 44.4525 52.5331L42.3596 48.7397L45.0935 47.8633L56.4476 44.3315L57.2324 44.6454L59.1422 48.1118Z" fill="#7A7A83"/>
<path d="M48.9655 25.0243C48.9262 25.1158 48.9262 25.2205 48.9655 25.312C49.1094 25.6652 49.214 26.0315 49.2794 26.3978C49.3056 26.5809 49.4625 26.6986 49.6457 26.6986C49.8288 26.6986 49.6849 26.6986 49.7111 26.6986C49.8157 26.6855 49.8942 26.6201 49.9465 26.5416C49.9988 26.4632 50.025 26.3585 50.0119 26.2669C49.9334 25.8484 49.8157 25.4298 49.6457 25.0243C49.5933 24.8804 49.4495 24.7888 49.3056 24.7888C49.1617 24.7888 49.214 24.7888 49.1617 24.815C49.0701 24.8542 48.9916 24.9196 48.9524 25.0112L48.9655 25.0243Z" fill="#7A7A83"/>
<path d="M48.3899 31.2638C48.4553 31.3161 48.5338 31.3292 48.6123 31.3292C48.73 31.3292 48.8477 31.2769 48.9131 31.1722C49.1617 30.819 49.384 30.4528 49.5541 30.0604C49.5933 29.9688 49.5933 29.8641 49.5541 29.7726C49.5148 29.681 49.4494 29.6025 49.3579 29.5633C49.3055 29.5371 49.2532 29.524 49.2009 29.524C49.057 29.524 48.9131 29.6156 48.8608 29.7464C48.7038 30.0996 48.5076 30.4266 48.2852 30.7275C48.1675 30.8975 48.2068 31.133 48.3637 31.2507L48.3899 31.2638Z" fill="#7A7A83"/>
<path d="M44.6095 33.9714C44.6618 33.9714 44.7142 33.9714 44.7534 33.9453L45.8653 33.4613C46.0484 33.3828 46.14 33.1604 46.0615 32.9642C45.9961 32.8334 45.8653 32.7418 45.7214 32.7418C45.5775 32.7418 45.6167 32.7418 45.5775 32.768L44.4656 33.252C44.2825 33.3305 44.1909 33.5528 44.2694 33.749C44.3348 33.8798 44.4656 33.9714 44.6095 33.9714Z" fill="#7A7A83"/>
<path d="M47.8015 31.4862C47.7099 31.4862 47.6183 31.5255 47.5529 31.5778C47.2782 31.8263 46.9643 32.0618 46.6373 32.258C46.4541 32.3626 46.4018 32.5981 46.5065 32.7681C46.5719 32.8859 46.7027 32.9513 46.8335 32.9513C46.9643 32.9513 46.9643 32.9382 47.0297 32.8989C47.396 32.6766 47.7491 32.415 48.0631 32.1272C48.1416 32.0618 48.1808 31.9702 48.1808 31.8656C48.1808 31.7609 48.1546 31.6694 48.0892 31.5909C48.0238 31.5124 47.9192 31.4731 47.8145 31.4731L47.8015 31.4862Z" fill="#7A7A83"/>
<path d="M49.9597 28.8308C50.0513 28.4122 50.1036 27.9806 50.1167 27.5489C50.1298 27.1172 50.0775 27.3527 50.0121 27.2873C49.9467 27.2088 49.8551 27.1696 49.7504 27.1696C49.5412 27.1696 49.3711 27.3396 49.3711 27.5358C49.3711 27.9152 49.3188 28.2945 49.2272 28.6608C49.188 28.857 49.3057 29.0663 49.515 29.1055C49.5412 29.1055 49.5673 29.1055 49.5935 29.1055C49.7635 29.1055 49.9205 28.9878 49.9597 28.8177V28.8308Z" fill="#7A7A83"/>
<path d="M41.4049 41.4144C41.261 41.0612 41.1563 40.695 41.0779 40.3287C41.0386 40.1456 40.8947 40.0278 40.7116 40.0278C40.5285 40.0278 40.6724 40.0278 40.6462 40.0278C40.45 40.0671 40.3061 40.2633 40.3453 40.4595C40.4238 40.8781 40.5416 41.2967 40.7116 41.7022C40.7639 41.8461 40.9078 41.9376 41.0517 41.9376C41.1956 41.9376 41.1433 41.9376 41.1956 41.9115C41.3918 41.833 41.4834 41.6106 41.4049 41.4275V41.4144Z" fill="#7A7A83"/>
<path d="M42.1768 34.8479C42.1768 34.9526 42.2029 35.0441 42.2814 35.1226C42.3468 35.2011 42.4515 35.2403 42.5561 35.2403C42.6607 35.2403 42.7392 35.2011 42.8046 35.1357C43.0793 34.8741 43.3933 34.6517 43.7203 34.4555C43.9034 34.3508 43.9557 34.1154 43.8511 33.9453C43.7857 33.8276 43.6549 33.7622 43.5241 33.7622C43.3933 33.7622 43.3933 33.7753 43.3279 33.8145C42.9616 34.0369 42.6084 34.2985 42.2945 34.5863C42.216 34.6517 42.1768 34.7433 42.1768 34.8479Z" fill="#7A7A83"/>
<path d="M42.5299 43.1411C42.3206 42.9187 42.1244 42.6702 41.9413 42.4086C41.8759 42.3039 41.7581 42.2385 41.6273 42.2385C41.4965 42.2385 41.4834 42.2647 41.418 42.3039C41.3395 42.3563 41.2741 42.4478 41.2611 42.5394C41.248 42.644 41.2611 42.7356 41.3134 42.8141C41.5096 43.1019 41.732 43.3766 41.9674 43.6382L42.1244 43.7951C42.1898 43.8736 42.2944 43.9129 42.3991 43.9129C42.5037 43.9129 42.5822 43.8736 42.6607 43.8082C42.7392 43.7428 42.7784 43.6512 42.7784 43.5466C42.7784 43.442 42.7392 43.3504 42.6738 43.285L42.5168 43.128L42.5299 43.1411Z" fill="#7A7A83"/>
<path d="M48.7301 24.4617C48.8086 24.4617 48.874 24.4356 48.9394 24.3963C49.1094 24.2786 49.1618 24.0432 49.044 23.8731C48.9263 23.7031 48.8086 23.533 48.6647 23.376C48.5993 23.2845 48.4815 23.2452 48.3769 23.2452C48.2723 23.2452 48.2069 23.2714 48.1414 23.3368C47.9845 23.4676 47.9583 23.7031 48.0891 23.86C48.2069 24.0039 48.3115 24.1478 48.4161 24.3048C48.4815 24.4094 48.5993 24.4748 48.7301 24.4748V24.4617Z" fill="#7A7A83"/>
</svg>
