<svg width="19" height="15" viewBox="0 0 19 15" fill="none" xmlns="http://www.w3.org/2000/svg">
<path d="M11.5 12C11.8852 12.0002 12.2556 12.1486 12.5344 12.4144C12.8132 12.6802 12.979 13.0431 12.9975 13.4279C13.016 13.8127 12.8858 14.1898 12.6338 14.4812C12.3818 14.7726 12.0274 14.9558 11.644 14.993L11.5 15H7.5C7.11478 14.9998 6.74441 14.8514 6.46561 14.5856C6.18682 14.3198 6.02099 13.9569 6.00248 13.5721C5.98396 13.1873 6.11419 12.8102 6.36618 12.5188C6.61816 12.2274 6.97258 12.0442 7.356 12.007L7.5 12H11.5ZM14.5 6C14.8978 6 15.2794 6.15804 15.5607 6.43934C15.842 6.72064 16 7.10218 16 7.5C16 7.89782 15.842 8.27936 15.5607 8.56066C15.2794 8.84196 14.8978 9 14.5 9H4.5C4.10218 9 3.72064 8.84196 3.43934 8.56066C3.15804 8.27936 3 7.89782 3 7.5C3 7.10218 3.15804 6.72064 3.43934 6.43934C3.72064 6.15804 4.10218 6 4.5 6H14.5ZM17.5 0C17.8978 0 18.2794 0.158035 18.5607 0.43934C18.842 0.720644 19 1.10218 19 1.5C19 1.89782 18.842 2.27936 18.5607 2.56066C18.2794 2.84196 17.8978 3 17.5 3H1.5C1.10218 3 0.720644 2.84196 0.43934 2.56066C0.158035 2.27936 0 1.89782 0 1.5C0 1.10218 0.158035 0.720644 0.43934 0.43934C0.720644 0.158035 1.10218 0 1.5 0H17.5Z" fill="#7A7A83"/>
</svg>
