<svg width="36" height="36" viewBox="0 0 36 36" fill="none" xmlns="http://www.w3.org/2000/svg">
<path d="M0 8C0 3.58172 3.58172 0 8 0H28C32.4183 0 36 3.58172 36 8V28C36 32.4183 32.4183 36 28 36H8C3.58172 36 0 32.4183 0 28V8Z" fill="#1B1B1C"/>
<path d="M12.6666 12.3333C12.9152 12.3334 13.1549 12.426 13.3389 12.5931C13.5229 12.7602 13.6381 12.9899 13.662 13.2373L13.6666 13.3333V21.6667H23.3333C23.5901 21.6668 23.837 21.7657 24.0229 21.9429C24.2087 22.1202 24.3193 22.3621 24.3316 22.6186C24.344 22.8751 24.2572 23.1266 24.0892 23.3208C23.9212 23.5151 23.6849 23.6372 23.4293 23.662L23.3333 23.6667H12.6666C12.418 23.6667 12.1784 23.5741 11.9943 23.4069C11.8103 23.2398 11.6952 23.0101 11.6713 22.7627L11.6666 22.6667V13.3333C11.6666 13.0681 11.772 12.8138 11.9595 12.6262C12.1471 12.4387 12.4014 12.3333 12.6666 12.3333ZM23.462 14.212C24.3593 14.212 24.8086 15.2967 24.174 15.9307L20.4613 19.6433C20.3622 19.7424 20.2446 19.821 20.1152 19.8746C19.9858 19.9283 19.8471 19.9558 19.707 19.9558C19.5669 19.9558 19.4281 19.9283 19.2987 19.8746C19.1693 19.821 19.0517 19.7424 18.9526 19.6433L17.35 18.0407L15.7 19.6907C15.6071 19.7835 15.4968 19.8572 15.3755 19.9074C15.2541 19.9576 15.1241 19.9835 14.9927 19.9834C14.8614 19.9834 14.7313 19.9575 14.61 19.9072C14.4887 19.8569 14.3785 19.7832 14.2856 19.6903C14.1928 19.5975 14.1191 19.4872 14.0689 19.3658C14.0187 19.2445 13.9928 19.1144 13.9929 18.9831C13.9929 18.8518 14.0188 18.7217 14.0691 18.6004C14.1194 18.4791 14.1931 18.3689 14.286 18.276L16.596 15.9667C16.796 15.7668 17.0672 15.6545 17.35 15.6545C17.6327 15.6545 17.9039 15.7668 18.104 15.9667L19.7073 17.57L21.1613 16.1153C20.9564 16.0177 20.7909 15.8532 20.6918 15.649C20.5928 15.4448 20.5662 15.2129 20.6164 14.9916C20.6666 14.7702 20.7905 14.5725 20.968 14.431C21.1454 14.2894 21.3657 14.2125 21.5926 14.2127L23.462 14.212Z" fill="#5BD197"/>
</svg>
