<svg width="96" height="65" viewBox="0 0 96 65" fill="none" xmlns="http://www.w3.org/2000/svg">
<path d="M95.6956 56.4408C95.6956 58.9017 89.3488 61.1097 79.3064 62.6052C72.6856 63.595 64.4606 64.2742 55.3864 64.5177C52.9815 64.5817 50.5129 64.6152 48.0015 64.6152C42.5618 64.6152 37.3383 64.4599 32.4678 64.1706C31.1466 64.0944 29.8529 64.0061 28.5897 63.9086C28.4801 63.8996 28.3735 63.8935 28.264 63.8842C24.3432 63.5767 20.7025 63.1838 17.4362 62.7148C6.96477 61.2164 0.304443 58.9626 0.304443 56.4408C0.304443 53.6419 8.49601 51.1749 20.9917 49.6979C22.2033 49.5547 23.4543 49.4207 24.7451 49.2989C26.3127 49.1496 27.9352 49.0126 29.6063 48.8939C30.1878 48.8512 30.7783 48.8116 31.3749 48.775C33.3811 48.6441 35.4539 48.5405 37.5788 48.4583C37.5808 48.4603 37.5828 48.4603 37.5847 48.4583C38.2606 48.4339 38.9424 48.4096 39.6273 48.3882C42.3457 48.306 45.1431 48.2634 48.0015 48.2634C52.8751 48.2634 57.5751 48.3882 62.001 48.6228C67.3738 48.9029 72.3417 49.3446 76.7221 49.911C77.9336 50.0664 79.1025 50.2339 80.2196 50.4106C80.3262 50.4257 80.4328 50.444 80.5393 50.4623C81.1938 50.5658 81.8299 50.6755 82.448 50.7821C90.6516 52.2531 95.6956 54.248 95.6956 56.4408Z" fill="#161618"/>
<path d="M48.0016 64.9198C42.6588 64.9198 37.4266 64.7699 32.4497 64.4746C31.1794 64.4014 29.8726 64.3131 28.5661 64.2123L28.2385 64.1876C24.3092 63.8795 20.6597 63.4854 17.3933 63.0163C10.8973 62.0866 0 59.9963 0 56.4406C0 54.9241 1.97476 53.5256 5.86959 52.2833C9.47072 51.1349 14.6875 50.1362 20.956 49.3953C22.215 49.2466 23.4801 49.1121 24.7165 48.9959C26.3586 48.8394 27.9966 48.7029 29.5846 48.5902C30.1666 48.547 30.7585 48.5075 31.356 48.4709C33.296 48.3442 35.3281 48.2407 37.5669 48.1539C37.5713 48.1536 37.5755 48.1544 37.5794 48.1536C38.2539 48.1292 38.9343 48.1051 39.6177 48.0837C42.3562 48.0007 45.177 47.9587 48.0016 47.9587C52.7939 47.9587 57.5095 48.0798 62.017 48.3183C67.3161 48.5949 72.277 49.0289 76.761 49.6088C77.9525 49.7617 79.132 49.9301 80.2673 50.1097C80.3615 50.1231 80.4605 50.1397 80.5595 50.1567L80.5904 50.1617C81.2426 50.265 81.8803 50.375 82.4998 50.4821C88.6595 51.5864 96 53.5164 96 56.4406C96 57.9295 93.8371 60.7491 79.3514 62.9063C72.5627 63.9211 64.2783 64.5837 55.3944 64.8223C52.9574 64.8871 50.4699 64.9198 48.0016 64.9198ZM37.5547 48.7639C35.3653 48.8489 33.293 48.9548 31.3947 49.0788C30.7983 49.1154 30.2088 49.155 29.6286 49.1975C28.0444 49.3102 26.4115 49.4462 24.7739 49.602C23.542 49.7183 22.2816 49.8521 21.0274 50.0002C5.97274 51.7797 0.608808 54.494 0.608808 56.4406C0.608808 58.6689 6.91568 60.9017 17.4795 62.4132C20.7334 62.8804 24.3699 63.2733 28.2879 63.5805L28.6152 63.6052C29.9157 63.7055 31.2184 63.7935 32.4853 63.8667C37.4506 64.1614 42.671 64.3107 48.0016 64.3107C50.4645 64.3107 52.9464 64.278 55.3784 64.2132C64.2379 63.9755 72.4967 63.3152 79.2616 62.3037C94.228 60.0751 95.3912 57.2526 95.3912 56.4406C95.3912 55.5299 94.1248 53.185 82.3943 51.082C81.7792 50.9758 81.1445 50.8663 80.4917 50.7628L80.4575 50.7572C80.3636 50.7411 80.2703 50.7254 80.1769 50.712C79.0428 50.5326 77.8692 50.3652 76.6834 50.2132C72.2143 49.635 67.2692 49.2023 61.9852 48.9268C57.4878 48.6886 52.7832 48.5679 48.0016 48.5679C45.1829 48.5679 42.3687 48.6098 39.6365 48.6928C38.9634 48.7136 38.2934 48.7374 37.6287 48.7612C37.6043 48.7656 37.5791 48.7665 37.5547 48.7639Z" fill="#161618"/>
<path d="M54.2386 6.64512C54.0287 6.53552 53.8156 6.43804 53.6025 6.3558C52.5097 5.9203 51.356 5.79241 50.251 5.93859C48.6285 6.15177 47.1065 6.94968 46.0106 8.23187C45.685 8.61257 45.3957 9.03595 45.1552 9.49889C44.9848 9.82471 44.8447 10.1567 44.7322 10.4948C44.5435 11.0612 44.4369 11.64 44.4034 12.2155L48.1415 13.0531C48.0532 12.447 48.1476 11.8075 48.452 11.2227C48.4854 11.1557 48.5251 11.0917 48.5615 11.0278C49.0425 10.2511 49.8279 9.76077 50.6772 9.63288C51.286 9.54149 51.9282 9.63593 52.5158 9.94353C53.0119 10.2024 53.4046 10.577 53.6756 11.0156L55.0879 9.87349L55.2981 9.70292L56.5765 8.67049C55.986 7.84507 55.1976 7.14464 54.2386 6.64512Z" fill="url(#paint0_linear_0_14)"/>
<path d="M48.1413 13.3575C48.119 13.3575 48.0967 13.3551 48.0747 13.3501L44.3369 12.5125C44.1915 12.4801 44.091 12.3469 44.0996 12.1978C44.1353 11.5816 44.2509 10.976 44.4436 10.3984C44.5616 10.0433 44.7102 9.69296 44.8856 9.35777C45.1303 8.88636 45.4311 8.44082 45.7792 8.03364C46.9062 6.71547 48.4802 5.86424 50.2115 5.63672C51.3934 5.48027 52.6066 5.63077 53.7151 6.07304C53.93 6.15572 54.1548 6.25774 54.3792 6.37492C55.3623 6.88708 56.1848 7.5997 56.8243 8.49316C56.9179 8.62432 56.8932 8.80605 56.7678 8.90747L53.867 11.2523C53.799 11.3077 53.7119 11.3309 53.6245 11.3157C53.5382 11.3011 53.4624 11.25 53.4167 11.1756C53.1673 10.772 52.8073 10.4392 52.375 10.2135C51.8628 9.94548 51.2909 9.84852 50.7222 9.93417C49.9339 10.0528 49.2406 10.51 48.8203 11.1881L48.7932 11.2351C48.7694 11.2758 48.7454 11.3169 48.724 11.3594C48.4567 11.8728 48.3601 12.4417 48.4425 13.0092C48.457 13.1083 48.4216 13.2082 48.3482 13.2763C48.2914 13.329 48.2171 13.3575 48.1413 13.3575ZM44.7275 11.976L47.8054 12.6657C47.7971 12.1167 47.9246 11.5762 48.182 11.0819C48.207 11.032 48.2376 10.9793 48.268 10.9276L48.2974 10.8767C48.8173 10.0368 49.666 9.47703 50.6318 9.33159C51.3295 9.2272 52.0299 9.34527 52.6571 9.67363C53.0819 9.89551 53.4509 10.203 53.7383 10.573L56.1569 8.61807C55.6007 7.90991 54.9093 7.33767 54.098 6.91503C53.8935 6.80856 53.6902 6.71606 53.4931 6.64022C52.4776 6.23483 51.3706 6.09772 50.2909 6.24048C48.7088 6.44838 47.2709 7.22584 46.2418 8.42981C45.924 8.80158 45.6493 9.20846 45.4255 9.63912C45.2649 9.94636 45.1288 10.2664 45.0212 10.5909C44.8722 11.0373 44.7738 11.5022 44.7275 11.976Z" fill="#481B8F"/>
<path d="M56.893 13.776C60.6112 13.776 63.6253 10.7604 63.6253 7.04033C63.6253 3.32031 60.6112 0.304626 56.893 0.304626C53.1749 0.304626 50.1608 3.32031 50.1608 7.04033C50.1608 10.7604 53.1749 13.776 56.893 13.776Z" fill="url(#paint1_linear_0_14)"/>
<path d="M56.8929 14.0806C53.013 14.0806 49.8566 10.9222 49.8566 7.04028C49.8566 3.15833 53.013 0 56.8929 0C60.7729 0 63.9296 3.15833 63.9296 7.04028C63.9296 10.9222 60.7729 14.0806 56.8929 14.0806ZM56.8929 0.609116C53.3489 0.609116 50.4654 3.49411 50.4654 7.04028C50.4654 10.5864 53.3489 13.4714 56.8929 13.4714C60.4373 13.4714 63.3208 10.5864 63.3208 7.04028C63.3208 3.49411 60.4373 0.609116 56.8929 0.609116Z" fill="#481B8F"/>
<path d="M56.8931 10.4015C58.7485 10.4015 60.2526 8.89668 60.2526 7.04035C60.2526 5.18402 58.7485 3.67917 56.8931 3.67917C55.0378 3.67917 53.5337 5.18402 53.5337 7.04035C53.5337 8.89668 55.0378 10.4015 56.8931 10.4015Z" fill="#FDEEF9"/>
<path d="M56.893 10.706C54.8727 10.706 53.2291 9.06155 53.2291 7.04027C53.2291 5.01899 54.8727 3.37454 56.893 3.37454C58.9135 3.37454 60.5571 5.01899 60.5571 7.04027C60.5571 9.06155 58.9135 10.706 56.893 10.706ZM56.893 3.98366C55.2083 3.98366 53.8379 5.35477 53.8379 7.04027C53.8379 8.72576 55.2083 10.0969 56.893 10.0969C58.5776 10.0969 59.9483 8.72576 59.9483 7.04027C59.9483 5.35477 58.5776 3.98366 56.893 3.98366Z" fill="#481B8F"/>
<path d="M35.4935 56.6844C35.5482 59.6113 34.4798 62.2396 32.4678 64.1706C31.1465 64.0944 29.8528 64.0061 28.5896 63.9086C28.48 63.8995 28.3735 63.8934 28.2639 63.8842C24.3431 63.5767 20.7024 63.1838 17.4362 62.7147C17.7924 62.3127 18.1789 61.9077 18.5747 61.4935C20.0997 59.9006 21.7922 58.125 22.5349 55.8317C22.681 55.3748 22.7937 54.8937 22.8546 54.3911C22.8607 54.3393 22.8668 54.2845 22.8759 54.2327C23.1651 52.0734 23.8013 50.4074 24.745 49.2988C25.2167 48.7416 25.7709 48.3243 26.3948 48.0563C26.9124 47.8369 27.4663 47.7304 28.0508 47.7304C28.1208 47.7304 28.1939 47.7334 28.2669 47.7365C29.2593 47.7791 30.3216 48.1293 31.3748 48.775C31.6245 48.9273 31.8741 49.0948 32.1207 49.2806C32.3642 49.4633 32.6017 49.6674 32.8239 49.8898C33.7097 50.7577 34.4098 51.909 34.8725 53.2125C35.253 54.2876 35.4721 55.4692 35.4935 56.6844Z" fill="url(#paint2_linear_0_14)"/>
<path d="M32.4678 64.4752C32.4618 64.4752 32.4562 64.4749 32.4502 64.4746C31.1794 64.4014 29.8726 64.3131 28.5661 64.2123L28.2385 64.1876C24.3092 63.8795 20.6596 63.4854 17.3932 63.0163C17.2823 63.0003 17.189 62.9247 17.1506 62.8197C17.112 62.7145 17.1343 62.5967 17.2086 62.5128C17.5808 62.0926 17.9919 61.6625 18.3549 61.283C19.8385 59.7331 21.5202 57.9765 22.2455 55.7375C22.3942 55.2721 22.4976 54.8063 22.5523 54.3545C22.5612 54.2805 22.5675 54.2296 22.5758 54.1811C22.871 51.9769 23.5235 50.2644 24.5131 49.1014C25.0146 48.509 25.6077 48.0628 26.2747 47.7764C26.8238 47.5435 27.421 47.4258 28.0506 47.4258C28.1252 47.4258 28.2028 47.4287 28.2807 47.4323C29.3265 47.4772 30.4517 47.8517 31.5337 48.5152C31.8007 48.6779 32.0602 48.8537 32.3037 49.0372C32.567 49.2353 32.8147 49.4494 33.0391 49.6743C33.9419 50.5588 34.6759 51.7479 35.1592 53.1104C35.5614 54.2471 35.7764 55.4475 35.7981 56.6792C35.8537 59.6677 34.7457 62.4063 32.6785 64.3904C32.6217 64.4449 32.5459 64.4752 32.4678 64.4752ZM18.0481 62.4938C21.1549 62.9256 24.5963 63.2912 28.2878 63.5806L28.6151 63.6052C29.8699 63.7019 31.1271 63.7873 32.3515 63.8589C34.2341 62.0012 35.241 59.461 35.1893 56.6902C35.1687 55.5243 34.9657 54.3884 34.5855 53.3141C34.1328 52.0385 33.4499 50.9297 32.6107 50.1073C32.4041 49.9003 32.1785 49.7049 31.938 49.5238C31.71 49.3525 31.4671 49.188 31.2162 49.0348C30.2216 48.4248 29.1975 48.0813 28.254 48.0408C28.185 48.0379 28.1163 48.0349 28.0506 48.0349C27.5031 48.0349 26.9858 48.1363 26.5137 48.3368C25.9353 48.5851 25.4177 48.9753 24.9772 49.4958C24.0639 50.5686 23.4587 52.1759 23.1775 54.273C23.1692 54.3224 23.1647 54.3625 23.1599 54.4012C23.0975 54.9175 22.9857 55.4211 22.8249 55.9243C22.0565 58.2968 20.3237 60.1073 18.7948 61.7041C18.5579 61.9516 18.3005 62.221 18.0481 62.4938Z" fill="#481B8F"/>
<path d="M80.6 52.4541C80.6214 55.9961 80.1495 59.398 79.3063 62.6051C72.6855 63.595 64.4605 64.2741 55.3864 64.5177C52.9814 64.5816 50.5128 64.6152 48.0014 64.6152C42.5617 64.6152 37.3382 64.4599 32.4678 64.1705C31.1465 64.0944 29.8528 64.0061 28.5896 63.9086C27.5303 62.4955 26.2122 60.5097 24.885 58.1402C24.8789 58.125 24.8728 58.1097 24.8636 58.0975C24.1909 56.8976 23.5182 55.6032 22.8759 54.2327C22.462 53.3495 22.06 52.4358 21.6795 51.4977C21.439 50.9069 21.2078 50.3069 20.9917 49.6978C19.5245 45.6533 18.5381 41.2767 18.6721 37.0586C18.7664 34.08 19.6067 30.9674 20.9551 28.0923C21.3053 27.3431 21.6917 26.6121 22.1058 25.9025V25.8995H22.1088C22.6842 24.9127 23.3173 23.9716 23.9991 23.0944C24.1026 22.9605 24.2092 22.8265 24.3157 22.6924C26.0934 20.4904 28.1664 18.7088 30.346 17.6459C30.4433 17.5971 30.5409 17.5515 30.6382 17.5058C40.6228 12.7668 53.4716 14.0643 63.3921 20.2042C64.1958 20.7037 64.981 21.2336 65.7452 21.797H65.7483C66.08 22.0407 66.4088 22.2935 66.7345 22.5523C67.0298 22.7839 67.322 23.0244 67.6111 23.2711C70.3569 25.595 72.7433 28.3634 74.6002 31.5369C78.4023 38.0331 80.1953 44.4289 80.5392 50.4623C80.5483 50.5963 80.5544 50.7303 80.5605 50.8642V50.8674C80.5696 51.0196 80.5758 51.1749 80.5788 51.3272C80.5939 51.7049 80.6 52.0795 80.6 52.4541Z" fill="url(#paint3_linear_0_14)"/>
<path d="M48.0015 64.9198C42.6587 64.9198 37.4264 64.7699 32.4495 64.4746C31.1793 64.4014 29.8725 64.3131 28.566 64.2123C28.4786 64.2054 28.3986 64.1614 28.346 64.0912C27.1302 62.4694 25.8067 60.4088 24.6194 58.2891C24.6135 58.2784 24.6081 58.2674 24.6034 58.2561C24.6034 58.2558 24.6034 58.2555 24.6031 58.2555C24.6013 58.2525 24.5998 58.2496 24.598 58.2466C23.8807 56.9668 23.2083 55.6599 22.6001 54.362C22.1687 53.4414 21.7642 52.5162 21.3973 51.6123C21.1372 50.9728 20.9104 50.3798 20.7047 49.7998C19.032 45.1886 18.2454 40.8979 18.3679 37.0487C18.46 34.1325 19.2594 30.9908 20.6794 27.9631C21.0201 27.2341 21.4089 26.4935 21.8352 25.7618C21.8426 25.7479 21.851 25.7342 21.8602 25.7217C22.4407 24.7283 23.0793 23.7816 23.7588 22.9075C23.8486 22.7909 23.942 22.6737 24.035 22.5562L24.0772 22.503C25.9408 20.1947 28.0618 18.4209 30.2126 17.3722C30.2982 17.329 30.3868 17.2874 30.4754 17.2458L30.5083 17.2303C40.3602 12.5545 53.3312 13.6196 63.5523 19.9452C64.3647 20.4502 65.1548 20.9843 65.9007 21.5334C65.9105 21.539 65.9197 21.545 65.9283 21.5515C66.2464 21.7853 66.5814 22.0417 66.9236 22.3138C67.2081 22.5366 67.4982 22.7745 67.8089 23.0395C70.6638 25.4561 73.0375 28.2635 74.8628 31.3831C78.4603 37.5299 80.4726 43.9433 80.843 50.4449C80.8522 50.5779 80.8584 50.7141 80.8644 50.8509C80.8736 51.0052 80.8801 51.1647 80.8831 51.3211C80.8974 51.6777 80.9045 52.0501 80.9045 52.4537C80.925 55.872 80.4865 59.3134 79.6007 62.6823C79.5698 62.8001 79.4717 62.8882 79.3513 62.9063C72.5625 63.9211 64.2782 64.5838 55.3943 64.8223C52.9573 64.8871 50.4697 64.9198 48.0015 64.9198ZM28.7506 63.6156C30.0075 63.7117 31.2631 63.7962 32.4852 63.8667C37.4505 64.1614 42.6708 64.3107 48.0015 64.3107C50.4644 64.3107 52.9463 64.278 55.3782 64.2132C64.1513 63.9779 72.3348 63.328 79.0626 62.3335C79.9006 59.0776 80.3156 55.7554 80.2957 52.4558V52.454C80.2957 52.0587 80.2889 51.6941 80.2746 51.3393C80.2713 51.1849 80.2654 51.0338 80.2564 50.8857C80.2502 50.7462 80.2446 50.6147 80.2353 50.483C79.8703 44.0753 77.8857 37.7539 74.3372 31.6907C72.5471 28.6308 70.2179 25.8763 67.4147 23.5038C67.1097 23.2436 66.8261 23.011 66.5467 22.7921C66.2173 22.5303 65.8971 22.2847 65.5924 22.0604C65.5826 22.0548 65.5734 22.0488 65.5642 22.042C64.824 21.4962 64.0389 20.9647 63.2315 20.463C53.1826 14.2433 40.4395 13.191 30.7685 17.7808L30.7343 17.7969C30.6504 17.8364 30.5663 17.876 30.4825 17.9179C28.4081 18.9298 26.3588 20.6462 24.5525 22.8837L24.5118 22.9351C24.4203 23.0502 24.329 23.1653 24.2401 23.2807C23.571 24.1415 22.9425 25.0739 22.3715 26.053C22.3673 26.0604 22.3626 26.0676 22.3578 26.0744C21.9419 26.7882 21.5629 27.5104 21.2309 28.2215C19.8453 31.1749 19.0658 34.2339 18.9761 37.068C18.8563 40.8397 19.6307 45.0538 21.2778 49.594C21.4812 50.1671 21.7044 50.7518 21.9612 51.383C22.3242 52.2773 22.7243 53.1925 23.1512 54.1032C23.7517 55.3839 24.4149 56.6738 25.1224 57.937C25.1397 57.9634 25.151 57.9878 25.159 58.0066C26.3047 60.0504 27.5761 62.0357 28.7506 63.6156Z" fill="#481B8F"/>
<path d="M55.3863 64.5177C52.9814 64.5816 50.5127 64.6151 48.0014 64.6151C42.5616 64.6151 37.3381 64.4598 32.4677 64.1705C31.1465 64.0944 29.8527 64.006 28.5895 63.9085C28.4799 63.8995 28.3734 63.8934 28.2638 63.8842C27.1953 62.3035 26.0113 60.3422 24.8849 58.1402C24.8788 58.1249 24.8727 58.1097 24.8635 58.0975C24.2883 56.9676 23.7312 55.7737 23.2107 54.5342C25.9077 53.788 30.1329 52.9505 34.8724 53.2124C41.6301 53.5901 49.4412 56.2032 55.3863 64.5177Z" fill="#FDEEF9"/>
<path d="M48.0015 64.8952C42.6593 64.8952 37.4274 64.7453 32.4511 64.45C31.1811 64.3768 29.8743 64.2885 28.5681 64.1876L28.2405 64.163C28.1564 64.1558 28.0797 64.1112 28.0324 64.041C26.8407 62.2785 25.6665 60.2819 24.6361 58.2678C24.6344 58.2645 24.6296 58.2535 24.626 58.2452C24.6219 58.2383 24.618 58.2315 24.6144 58.2246C24.0184 57.0537 23.4592 55.8485 22.953 54.6425C22.9218 54.5684 22.9242 54.4846 22.9592 54.412C22.9943 54.3397 23.0588 54.2859 23.1361 54.2645C25.8591 53.5114 30.1092 52.6679 34.8878 52.9332C43.5684 53.4183 50.5414 57.2613 55.6137 64.3551C55.6738 64.4393 55.6827 64.5496 55.6366 64.6424C55.5905 64.7349 55.4972 64.7947 55.3938 64.7974C52.9567 64.8622 50.4698 64.8952 48.0015 64.8952ZM28.4201 63.6154L28.613 63.63C29.9139 63.7305 31.2168 63.8185 32.4838 63.8914C37.4497 64.1862 42.6703 64.3355 48.0015 64.3355C50.2855 64.3355 52.5854 64.3075 54.8471 64.2519C49.9056 57.5762 43.1831 53.9572 34.8569 53.4918C30.3274 53.2422 26.2818 54.0012 23.593 54.7201C24.0585 55.8102 24.5666 56.8972 25.1055 57.9564C25.124 57.9861 25.1353 58.0132 25.1424 58.031C26.1326 59.9651 27.267 61.899 28.4201 63.6154Z" fill="#481B8F"/>
<path d="M83.7375 43.9335C84.0049 47.3287 83.0134 49.7603 82.3403 50.9813C82.0208 51.5599 81.7732 51.8672 81.7652 51.877C81.4693 52.2134 80.7774 52.4212 80.3689 52.5112C80.3288 52.028 80.2844 51.5484 80.2332 51.0755C80.3154 51.1862 80.3625 51.2493 80.3678 51.2563C80.4098 51.3138 80.4789 51.3416 80.5446 51.3349C80.5774 51.3315 80.6094 51.3207 80.6389 51.2996C80.726 51.2364 80.7439 51.1154 80.6822 51.0282C80.6719 51.0156 80.4824 50.7544 80.1485 50.3179C80.0146 50.143 79.8568 49.9404 79.6785 49.7142C78.6618 48.4212 76.9619 46.3561 74.9951 44.365C74.9213 43.7586 63.411 35.561 63.0283 35.7554C62.5045 35.4378 62.1049 35.1994 61.8529 35.0502C63.0905 33.8349 63.9919 32.3252 64.4643 30.6419L66.2242 24.3733L66.3378 23.9649L66.9842 21.6666C67.5321 22.0135 69.0858 23.0285 71.1252 24.6231C74.2476 27.0665 78.5143 30.8729 82.0702 35.7366C82.1879 36.0776 83.4071 39.6849 83.7422 43.9361L83.7375 43.9335Z" fill="#9751F7"/>
<path d="M80.0946 52.8837L80.0657 52.5366C80.0256 52.056 79.9816 51.5789 79.9305 51.1087L79.8576 50.4392C79.7358 50.2804 79.5954 50.1007 79.4394 49.9032C78.3755 48.5497 76.7036 46.5278 74.7788 44.5791L74.7057 44.505L74.6988 44.4497C74.0787 43.5833 64.3428 36.5769 63.0723 36.0746L63.0152 36.1037L62.8705 36.016C62.3479 35.6989 61.9489 35.4613 61.6977 35.3123L61.3571 35.1103L61.6398 34.8328C62.8431 33.6512 63.7186 32.1733 64.171 30.5595L66.8018 21.1907L67.147 21.4093C67.721 21.773 69.2763 22.7911 71.3126 24.3832C74.3341 26.7477 78.6956 30.6053 82.3158 35.5568L82.358 35.6374C82.4953 36.0353 83.7097 39.6493 84.0459 43.9119L84.0872 44.4348L84.0723 44.428C84.2135 47.6731 83.2287 50.0008 82.6068 51.1286C82.2703 51.738 82.0117 52.0566 82.001 52.0696C81.6267 52.4956 80.8594 52.715 80.4346 52.8087L80.0946 52.8837ZM80.5964 51.6354C80.6121 51.7987 80.627 51.9623 80.6415 52.1267C81.0081 52.0179 81.3737 51.8612 81.5366 51.6759C81.5363 51.6759 81.7712 51.3823 82.0738 50.8342C82.6951 49.7072 83.6984 47.3151 83.4338 43.9575L83.3928 43.4349C83.0221 39.6023 81.979 36.4136 81.7973 35.8792C78.2238 31.002 73.9212 27.1977 70.9375 24.8632C69.2454 23.5397 67.8913 22.6189 67.1657 22.1454L64.7572 30.7242C64.3113 32.3146 63.4793 33.7806 62.3416 34.9866C62.5533 35.113 62.814 35.2695 63.1187 35.4542C63.2248 35.4735 63.3488 35.5306 63.5117 35.6174C64.5441 36.1683 74.1756 42.7499 75.2086 44.1541L75.2116 44.1508C77.1566 46.12 78.8442 48.1606 79.9177 49.5261C80.0966 49.753 80.2554 49.9568 80.3901 50.1328C80.6448 50.4653 80.8157 50.6968 80.8883 50.7949L80.9219 50.8404C81.0883 51.076 81.0372 51.3871 80.8172 51.5465C80.7509 51.5941 80.6769 51.6238 80.5964 51.6354ZM80.61 51.0721L80.6112 51.0739C80.6109 51.0733 80.6106 51.0727 80.61 51.0721Z" fill="#481B8F"/>
<path d="M68.7997 19.1876C68.5641 20.5337 66.3875 27.1032 65.7766 28.6638C64.186 32.7257 61.909 36.1534 56.8281 36.6543C49.5894 37.3146 44.5637 24.9461 28.0863 27.3881C28.031 27.3677 21.6761 28.4576 21.6305 28.3846C19.9817 27.9165 17.5453 25.1064 16.9178 23.6516C17.4218 24.0498 19.3169 26.0097 19.9935 26.2019C20.0375 26.2725 26.3944 25.183 26.4473 25.2051C42.9247 22.7631 47.9525 35.1318 55.1912 34.4715C60.2721 33.9707 62.5491 30.5429 64.1377 26.4807C64.6445 25.1837 66.2368 20.4259 66.8946 18.0845L66.1948 16.904L66.552 13.5098L68.122 15.6082L68.401 15.9825L68.4027 15.9848C68.4196 16.0122 68.4368 16.0375 68.4496 16.0643C68.9211 16.8505 69.0364 17.8333 68.7997 19.1876Z" fill="#C9C9C9"/>
<path d="M56.2697 36.996C53.5696 36.996 51.1477 35.315 48.3724 33.3892C43.7763 30.1999 38.0562 26.2305 28.1328 27.701C28.1191 27.7031 28.1054 27.7042 28.0918 27.7042C27.95 27.7197 26.9907 27.877 26.0623 28.029C22.7736 28.5677 21.8571 28.7182 21.548 28.6756L21.5444 28.6887C19.8149 28.198 17.2943 25.3228 16.6275 23.7768C16.5705 23.6438 16.6106 23.4889 16.7253 23.4005C16.8401 23.3125 17.0003 23.3137 17.1139 23.4032C17.2711 23.5275 17.5324 23.7726 17.8633 24.0831C18.4804 24.6622 19.6157 25.7273 20.0482 25.8873C20.4231 25.8587 22.7118 25.4843 24.2439 25.2333C25.6958 24.9956 26.1984 24.9132 26.4018 24.8969L26.4009 24.8921C36.5732 23.3854 42.4068 27.4339 47.0953 30.6868C49.9696 32.6813 52.4542 34.4064 55.1623 34.1565C60.3259 33.6473 62.4484 29.9322 63.8435 26.3653C64.3399 25.095 65.8709 20.5275 66.5534 18.129L65.9229 17.0655C65.8881 17.0069 65.8732 16.9385 65.8804 16.8709L66.2377 13.4768C66.2514 13.3474 66.3429 13.2394 66.4684 13.2049C66.5923 13.1692 66.727 13.2156 66.8052 13.3203L68.6545 15.7937C68.6593 15.7999 68.6771 15.8276 68.6816 15.8344C68.7015 15.8657 68.7199 15.8963 68.7351 15.9281C69.2357 16.76 69.3596 17.8215 69.1111 19.242C68.862 20.6658 66.6435 27.317 66.0709 28.7791C64.6042 32.5246 62.3628 36.4265 56.8591 36.9689C56.6612 36.9871 56.4647 36.996 56.2697 36.996ZM32.2871 26.7504C39.9157 26.7504 44.7397 30.0985 48.7327 32.8696C51.6067 34.8641 54.0889 36.587 56.7994 36.3393C61.9612 35.8304 64.0855 32.1153 65.4823 28.5483C66.1063 26.9544 68.263 20.4201 68.488 19.1331C68.7089 17.8709 68.6105 16.9474 68.1786 16.227C68.1599 16.1913 68.1533 16.1824 68.1474 16.1726L66.7823 14.3449L66.5204 16.8329L67.1667 17.9229C67.2107 17.9976 67.2226 18.0868 67.1991 18.1701C66.532 20.5441 64.9419 25.2916 64.4321 26.5958C62.9674 30.3415 60.7278 34.2437 55.2221 34.7862C52.2842 35.0556 49.7107 33.2714 46.735 31.2064C42.1377 28.0171 36.4198 24.046 26.4936 25.5179C26.4797 25.52 26.4654 25.5212 26.4514 25.5212C26.3043 25.5372 25.309 25.6999 24.3462 25.8576C21.1202 26.3858 20.2168 26.5327 19.9109 26.4925L19.907 26.5062C19.6077 26.4212 19.1716 26.1023 18.6505 25.655C19.5913 26.7513 20.7733 27.795 21.6835 28.0704C22.0575 28.0442 24.4891 27.6456 25.96 27.4047C27.3682 27.1742 27.8483 27.0954 28.0406 27.0791L28.04 27.0752C29.5475 26.8518 30.9601 26.7504 32.2871 26.7504Z" fill="#481B8F"/>
<path d="M66.7254 13.7383C66.7223 13.7353 66.7192 13.7353 66.7192 13.7322L66.5549 13.513C66.5549 13.5109 66.5539 13.5099 66.5518 13.5099C66.4423 13.3698 66.3174 13.2389 66.1805 13.1109C65.2673 12.2643 63.9034 11.6247 62.3389 11.1222C62.3145 11.1131 62.2902 11.107 62.2628 11.1009C61.5231 10.8725 59.992 10.5526 58.0529 10.1963H58.0499C57.2006 10.038 56.2721 9.87348 55.2981 9.70291C55.1093 9.67242 54.9145 9.63897 54.7227 9.60551C53.3346 9.37099 51.8704 9.13342 50.4245 8.90195C48.8995 8.66439 47.3926 8.43597 46.0106 8.23186C43.8859 7.92121 42.0504 7.67152 40.8875 7.5405C26.9246 5.98424 22.401 6.66341 21.3356 6.75784C20.2702 6.85227 19.2505 7.52229 18.9096 8.72833L16.3495 17.722C15.6768 19.994 15.969 22.5462 17.2566 24.2974C17.2597 24.3035 17.2657 24.3096 17.2688 24.3157C17.2719 24.3218 17.2749 24.3249 17.2779 24.3309C17.9325 25.205 18.8365 25.872 19.9931 26.2009C19.9962 26.207 20.0358 26.204 20.1058 26.1979C20.2063 26.1888 20.3677 26.1675 20.5746 26.137C20.6994 26.1187 20.8424 26.1005 20.9946 26.0761C21.0465 26.0669 21.1012 26.0608 21.156 26.0518C21.427 26.0091 21.7314 25.9604 22.0571 25.9086C22.0722 25.9086 22.0905 25.9056 22.1058 25.9025V25.8995H22.1088C22.4224 25.8507 22.7512 25.7959 23.0798 25.7441C23.1498 25.732 23.2169 25.7228 23.2839 25.7106C23.3113 25.7076 23.3386 25.7015 23.366 25.6984C23.4269 25.6862 23.4878 25.6772 23.5486 25.6679C23.6157 25.6558 23.6825 25.6467 23.7496 25.6345C23.844 25.6192 23.9383 25.604 24.0327 25.5888C24.0509 25.5857 24.0691 25.5827 24.0874 25.5797C24.1635 25.5675 24.2367 25.5553 24.3096 25.5431C24.5836 25.5005 24.8455 25.4578 25.086 25.4183C25.165 25.403 25.2411 25.3908 25.3143 25.3786C25.3904 25.3665 25.4633 25.3573 25.5333 25.3452C25.6734 25.3208 25.8012 25.3025 25.9109 25.2843C26.1331 25.2477 26.2975 25.2233 26.3826 25.2111C26.4161 25.2081 26.4344 25.205 26.4436 25.205H26.4497C27.9381 24.9827 29.3323 24.8853 30.6443 24.8853C30.8574 24.8853 31.0704 24.8883 31.2775 24.8944C31.4906 24.8975 31.7007 24.9065 31.9076 24.9187C32.0841 24.9248 32.2546 24.937 32.4251 24.9492C32.5346 24.9584 32.6443 24.9645 32.7508 24.9766C32.8512 24.9827 32.9487 24.9919 33.0461 25.004C33.3108 25.0284 33.5696 25.0588 33.8254 25.0954C33.9684 25.1106 34.1115 25.132 34.2545 25.1563C34.2881 25.1593 34.3186 25.1624 34.352 25.1715C34.4828 25.1898 34.6137 25.2111 34.7447 25.2355C34.8725 25.2568 35.0003 25.2811 35.1282 25.3086C35.2865 25.336 35.4448 25.3665 35.6001 25.403C35.7582 25.4365 35.9136 25.47 36.0658 25.5066C36.6289 25.6406 37.1738 25.7959 37.7034 25.9664C37.8161 25.9999 37.9227 26.0335 38.0322 26.073C38.1966 26.1279 38.361 26.1858 38.5223 26.2436C38.6866 26.3015 38.8449 26.3624 39.0032 26.4233C39.1615 26.4842 39.3198 26.5482 39.475 26.6121C39.7217 26.7126 39.9621 26.8161 40.2026 26.9228C40.5435 27.0781 40.8784 27.2365 41.2041 27.3979C41.2985 27.4466 41.3897 27.4923 41.4811 27.541C41.758 27.6842 42.0321 27.8304 42.297 27.9765C42.5648 28.1258 42.8234 28.275 43.0792 28.4273C43.2102 28.5034 43.3349 28.5826 43.4627 28.6588C43.7337 28.8202 43.9986 28.9877 44.2603 29.1522C44.586 29.3623 44.9057 29.5724 45.2162 29.7795C45.3957 29.9014 45.5723 30.0201 45.7458 30.1389C45.7762 30.1602 45.8067 30.1785 45.834 30.1998C45.9558 30.2821 46.0745 30.3643 46.1933 30.4466C46.3394 30.547 46.4794 30.6445 46.6226 30.742C47.3958 31.281 48.1385 31.7988 48.8568 32.2678C49.0547 32.3957 49.2525 32.5237 49.4474 32.6424C49.4839 32.6667 49.5203 32.6881 49.5569 32.7094C49.6725 32.7825 49.7913 32.8556 49.9101 32.9256C50.4336 33.2363 50.9481 33.5104 51.4626 33.7419C51.5143 33.7662 51.5691 33.7906 51.6208 33.812C51.7243 33.8576 51.8248 33.8972 51.9253 33.9368C52.0561 33.9886 52.187 34.0373 52.3179 34.083C52.6224 34.1895 52.9268 34.2749 53.2341 34.3418C53.3802 34.3754 53.5234 34.3997 53.6695 34.4241C54.0773 34.485 54.4913 34.5094 54.9115 34.4911C55.0059 34.485 55.0971 34.4789 55.1915 34.4698C55.4593 34.4423 55.7211 34.4089 55.9738 34.3662C55.9889 34.3632 56.0042 34.3601 56.0194 34.3601C56.1169 34.3418 56.2143 34.3236 56.3086 34.3053C56.3482 34.2962 56.3847 34.2901 56.4243 34.281C56.5248 34.2596 56.6252 34.2383 56.7226 34.2139L56.7957 34.1956C56.8992 34.1683 56.9996 34.1408 57.1001 34.1134C57.1275 34.1043 57.1548 34.0982 57.1823 34.0891C57.2736 34.0616 57.365 34.0343 57.4533 34.0068C57.4775 33.9977 57.5019 33.9886 57.5263 33.9794C57.6236 33.9459 57.7211 33.9124 57.8185 33.8759C58.0407 33.7937 58.2568 33.7023 58.4668 33.6018C58.5704 33.5531 58.6739 33.5013 58.7743 33.4495C58.8748 33.3977 58.9753 33.3429 59.0727 33.2851C59.1488 33.2424 59.2217 33.1997 59.2949 33.1541C59.3405 33.1267 59.3861 33.0993 59.4288 33.0688C59.5018 33.0231 59.5719 32.9774 59.6418 32.9287C59.7332 32.8678 59.8245 32.8038 59.9127 32.7369C60.0893 32.6059 60.2598 32.4688 60.4272 32.3257C60.6403 32.1399 60.8442 31.948 61.0391 31.744C61.1365 31.6404 61.2308 31.5368 61.3252 31.4333C61.4196 31.3267 61.5109 31.2201 61.5992 31.1105C62.0467 30.5623 62.4455 29.9653 62.8077 29.3319C62.8777 29.2039 62.9507 29.076 63.0207 28.9451C63.2277 28.5552 63.4226 28.1532 63.6083 27.742C63.6722 27.605 63.7331 27.4679 63.7909 27.3279C63.9097 27.0477 64.0253 26.7674 64.138 26.4812C64.2141 26.2863 64.3144 26.0121 64.4332 25.6801C64.4546 25.6162 64.4788 25.5522 64.5032 25.4853C64.5032 25.4792 64.5063 25.47 64.5093 25.4639C64.5427 25.3786 64.5732 25.2872 64.6037 25.1959C64.6249 25.135 64.6463 25.0741 64.6676 25.0132C64.6766 24.9919 64.6829 24.9736 64.6888 24.9523C64.7163 24.867 64.7468 24.7817 64.7771 24.6964C64.8381 24.5229 64.902 24.3401 64.9629 24.1544C65.0146 24.0021 65.0664 23.8467 65.1211 23.6883C65.1425 23.6274 65.1607 23.5696 65.182 23.5117C65.2186 23.393 65.2581 23.2741 65.3008 23.1523C65.3615 22.9696 65.4225 22.7838 65.4834 22.6011C65.5442 22.4183 65.602 22.2355 65.663 22.0529C65.666 22.0498 65.666 22.0437 65.6691 22.0376C65.6964 21.9584 65.7208 21.8762 65.7483 21.797C65.7635 21.7513 65.7756 21.7087 65.7908 21.663C65.8335 21.529 65.8761 21.398 65.9186 21.2671C65.9552 21.1483 65.9947 21.0295 66.0313 20.9138C66.1288 20.6031 66.2262 20.2986 66.3174 20.0062C66.5427 19.2814 66.7436 18.6144 66.8928 18.0783C67.0267 17.6063 67.1211 17.2316 67.1606 17.0063C67.4133 15.5657 67.2672 14.5485 66.7254 13.7383Z" fill="#9751F7"/>
<path d="M54.6403 34.8129C54.2993 34.8129 53.9604 34.7874 53.6227 34.7368C53.4655 34.7109 53.3162 34.6853 53.1634 34.6502C52.8445 34.5806 52.5237 34.4899 52.2137 34.3817C52.0787 34.3344 51.9437 34.2841 51.8091 34.2309C51.705 34.1898 51.6007 34.1488 51.4931 34.1012C51.4446 34.0816 51.3843 34.0548 51.3278 34.028C50.8272 33.8026 50.3091 33.5301 49.7487 33.1976C49.628 33.1265 49.5064 33.0516 49.3881 32.9766C49.3563 32.9585 49.3135 32.9332 49.2713 32.905C49.0858 32.7925 48.8854 32.6629 48.6854 32.5335C47.9603 32.0603 47.2228 31.5457 46.4419 31.0012L46.0141 30.707C45.8872 30.619 45.7736 30.5405 45.6574 30.4622C45.6277 30.4399 45.6152 30.4322 45.6027 30.4239L45.0388 30.0411C44.7317 29.8365 44.4133 29.6274 44.0887 29.418L44.0239 29.3772C43.7867 29.2279 43.5462 29.0765 43.3009 28.9305L43.1377 28.8315C43.0661 28.7877 42.9944 28.7437 42.9204 28.7006C42.6645 28.5483 42.4082 28.4005 42.1431 28.2527C41.8821 28.1087 41.6104 27.9636 41.3363 27.822C41.2756 27.7899 41.2189 27.7607 41.1612 27.7313L41.0589 27.679C40.7411 27.5213 40.4094 27.3646 40.0714 27.2105C39.8371 27.1067 39.5996 27.0044 39.3559 26.9051C39.2016 26.8414 39.0455 26.7784 38.8897 26.7183C38.7346 26.6585 38.5791 26.5987 38.4177 26.5422C38.2563 26.4839 38.0939 26.4271 37.9319 26.3727C37.8211 26.3328 37.7197 26.3013 37.613 26.2695C37.0496 26.0883 36.5217 25.9399 35.9925 25.8144C35.8424 25.7781 35.6902 25.7454 35.5351 25.7127C35.3787 25.6758 35.2265 25.6464 35.0743 25.6202C34.9387 25.5914 34.8157 25.5679 34.6923 25.5473C34.5606 25.5226 34.4343 25.5024 34.3082 25.4846C34.2957 25.4828 34.2832 25.4804 34.2711 25.4771C34.2559 25.473 34.2416 25.4727 34.2265 25.4712C34.0648 25.4447 33.928 25.4245 33.7916 25.4096C33.5303 25.3724 33.2764 25.3427 33.0172 25.3189C32.9164 25.3064 32.8257 25.2978 32.7321 25.2924C32.6483 25.2832 32.5805 25.2782 32.5124 25.2731L32.3989 25.2645C32.236 25.2529 32.0689 25.2407 31.8962 25.2347C31.6866 25.2225 31.4815 25.2136 31.2731 25.2107C29.719 25.1646 28.1191 25.2752 26.4963 25.5179C26.4808 25.5203 26.4654 25.5215 26.4496 25.5215L26.4107 25.5259C26.3432 25.536 26.1815 25.5601 25.9624 25.5961L25.8128 25.6202C25.7424 25.6312 25.6672 25.6428 25.5875 25.6568C25.5444 25.6642 25.5004 25.6708 25.4555 25.6773L25.3295 25.6969C25.27 25.7068 25.2088 25.7169 25.1455 25.7288C24.8961 25.7701 24.6333 25.8126 24.3586 25.8558L23.6041 25.9792C23.5402 25.989 23.484 25.9973 23.4281 26.0086L23.3776 26.0164C23.3577 26.0196 23.3378 26.0229 23.3182 26.025C23.2994 26.0295 23.2581 26.0357 23.2162 26.0422L22.7082 26.124C22.534 26.1523 22.3615 26.1802 22.193 26.2064C22.1841 26.2091 22.1749 26.2112 22.1656 26.213C22.1422 26.2174 22.116 26.2213 22.0913 26.2234L21.0503 26.3875C20.9412 26.4051 20.8419 26.4188 20.7497 26.4316L20.6201 26.4497C20.4061 26.4815 20.2381 26.5035 20.1338 26.5128C20.0622 26.5193 19.9703 26.527 19.885 26.4988C18.7182 26.1624 17.7562 25.4971 17.025 24.5206C17.0157 24.5084 17.0074 24.4953 17.0003 24.482C15.6893 22.6971 15.3237 20.0727 16.0463 17.632L18.6055 8.64185C18.956 7.4022 19.9914 6.5596 21.3077 6.44272C21.3776 6.43647 21.4626 6.42755 21.5646 6.41714C25.74 5.98677 32.2529 6.2598 40.9225 7.22613C42.0459 7.35253 43.8209 7.59196 46.0563 7.91882C47.4398 8.12315 48.9473 8.35187 50.4729 8.58921C51.9212 8.8212 53.3864 9.05884 54.7755 9.29351C54.9673 9.32682 55.1608 9.36043 55.3484 9.39047C56.3225 9.56119 57.2473 9.72507 58.0937 9.8827C58.0993 9.8833 58.105 9.88418 58.11 9.88508C60.2197 10.2726 61.6484 10.5802 62.3562 10.7988C62.3723 10.8011 62.41 10.8113 62.4475 10.8249C64.2275 11.3966 65.5227 12.0696 66.3955 12.8789C66.5543 13.027 66.6851 13.1674 66.7953 13.3081C66.7998 13.3129 66.8037 13.3179 66.8075 13.3233L66.9591 13.5252C66.9698 13.5368 66.9797 13.5493 66.9883 13.5624C67.5813 14.4496 67.735 15.5611 67.4722 17.061C67.4309 17.2954 67.3385 17.6665 67.197 18.1647C67.0578 18.6641 66.8691 19.2976 66.6197 20.1L66.2876 21.1496C66.2653 21.2192 66.2424 21.2897 66.221 21.3602L65.9678 22.141L65.966 22.1463C65.9639 22.1517 65.9618 22.1573 65.9597 22.163L65.6009 23.2518C65.5578 23.375 65.5195 23.4898 65.4844 23.6049L65.2623 24.2559C65.2017 24.4409 65.1372 24.6256 65.0753 24.8011C65.0435 24.8912 65.0153 24.9703 64.9897 25.0498C64.9841 25.0712 64.974 25.1003 64.9597 25.1348L64.9017 25.3005C64.872 25.3909 64.8417 25.4819 64.8087 25.5667C64.806 25.5759 64.8033 25.5848 64.8001 25.5934L64.7831 25.6398C64.7656 25.6874 64.7486 25.7338 64.7329 25.7805C64.611 26.1222 64.5093 26.3992 64.4326 26.5963C64.3185 26.886 64.202 27.1686 64.0819 27.4514C64.0236 27.5927 63.9609 27.7343 63.8949 27.8759C63.7014 28.3047 63.5007 28.7155 63.3 29.0935C63.2575 29.1729 63.2147 29.2499 63.1719 29.3267L63.0851 29.4834C62.6901 30.1743 62.2852 30.7704 61.8443 31.3105C61.7537 31.4226 61.6597 31.5327 61.5619 31.643L61.5328 31.6748C61.446 31.77 61.3592 31.8652 61.2697 31.9604C61.0759 32.1632 60.869 32.3601 60.635 32.5641C60.4522 32.7203 60.2783 32.8592 60.1011 32.9909C60.0108 33.0596 59.9139 33.1271 59.8175 33.1917C59.748 33.2399 59.674 33.2883 59.5964 33.3368C59.5628 33.3615 59.5102 33.3936 59.4569 33.4255C59.3853 33.4704 59.308 33.5156 59.2275 33.5608C59.1311 33.6179 59.0253 33.6762 58.9192 33.7309C58.8154 33.7841 58.7084 33.8377 58.6011 33.8882C58.3859 33.9911 58.1588 34.0872 57.9284 34.1726C57.8291 34.2098 57.7289 34.2443 57.6284 34.2785L57.5663 34.3023L57.2735 34.3918C57.2637 34.3953 57.2447 34.4007 57.2259 34.4061C57.22 34.4078 57.1894 34.4171 57.1831 34.4185L56.8011 34.5203C56.6986 34.5461 56.5939 34.5684 56.4896 34.5905L56.0773 34.6711C56.0583 34.6746 56.0389 34.6764 56.0196 34.6764C55.7791 34.7198 55.5166 34.7543 55.2235 34.7844C55.1269 34.7939 55.0348 34.7998 54.9396 34.8064C54.8398 34.8106 54.7399 34.8129 54.6403 34.8129ZM34.4126 24.8606C34.5425 24.879 34.6727 24.9001 34.8026 24.9242C34.9292 24.9456 35.0618 24.9709 35.1944 24.9992C35.3466 25.0254 35.5113 25.0572 35.6727 25.0953C35.8264 25.1274 35.9845 25.1619 36.1394 25.1991C36.6837 25.3284 37.2274 25.481 37.8005 25.6654C37.9123 25.6987 38.0244 25.7338 38.1397 25.7755C38.2991 25.8287 38.4661 25.8873 38.6293 25.9459C38.7943 26.0039 38.9557 26.066 39.1169 26.1282C39.2774 26.1901 39.4382 26.2549 39.5955 26.3197C39.844 26.4209 40.0874 26.5256 40.3306 26.6335C40.6781 26.7917 41.0158 26.9515 41.3446 27.1145L41.4486 27.168C41.5096 27.1989 41.5696 27.2296 41.63 27.2617C41.9058 27.4044 42.1823 27.552 42.4495 27.6995C42.7215 27.8509 42.9826 28.0017 43.2412 28.1554C43.3164 28.1991 43.3919 28.2455 43.4674 28.2916L43.6247 28.3868C43.8744 28.5358 44.119 28.6896 44.3604 28.8416L44.4285 28.8844C44.7587 29.0974 45.0801 29.3082 45.3916 29.5161L45.9529 29.8971C45.9793 29.9147 46.0049 29.9319 46.0287 29.9507C46.1289 30.0173 46.2445 30.0973 46.3598 30.177L46.8004 30.4801C47.5801 31.0241 48.3138 31.5356 49.0296 32.0029C49.2237 32.1287 49.4193 32.2548 49.612 32.372C49.6542 32.4002 49.6845 32.4178 49.7151 32.4353C49.8388 32.5133 49.9544 32.5846 50.0704 32.6527C50.6114 32.974 51.1087 33.2357 51.5924 33.4534C51.6441 33.4778 51.6937 33.4998 51.7404 33.5188C51.848 33.5664 51.9446 33.6045 52.041 33.6423C52.1685 33.6928 52.2957 33.7401 52.4224 33.7844C52.708 33.8844 53.0038 33.968 53.3014 34.0328C53.4447 34.0655 53.5814 34.0887 53.7208 34.1119C54.1123 34.1702 54.5095 34.1922 54.8977 34.175C54.9863 34.1693 55.0722 34.1637 55.1605 34.155C55.4388 34.1265 55.6879 34.0935 55.9215 34.0542C55.9394 34.0506 55.959 34.0474 55.9798 34.0456L56.3532 33.9727C56.456 33.951 56.5523 33.9305 56.6457 33.907L57.0173 33.8082C57.0187 33.807 57.0381 33.8017 57.0577 33.796C57.0607 33.7951 57.0886 33.7871 57.0916 33.7862L57.4144 33.6833C57.5185 33.6476 57.613 33.6149 57.7078 33.5795C57.9215 33.5004 58.1305 33.4124 58.3303 33.3166C58.4326 33.2684 58.5324 33.2184 58.6296 33.1682C58.7245 33.1194 58.8196 33.0677 58.9112 33.0129C58.9893 32.9689 59.0583 32.9291 59.1273 32.8859C59.1713 32.8595 59.2096 32.8369 59.245 32.8113C59.3297 32.7577 59.396 32.7146 59.4617 32.6688C59.5524 32.6084 59.6386 32.5481 59.7212 32.485C59.8898 32.3601 60.0524 32.2298 60.2218 32.085C60.4388 31.8958 60.6324 31.712 60.8107 31.5252C60.8963 31.4342 60.981 31.3411 61.0661 31.2483L61.0919 31.2201C61.1799 31.1204 61.2679 31.0175 61.3535 30.9116C61.773 30.3974 62.1585 29.8296 62.5334 29.1747L62.6196 29.0188C62.6606 28.9451 62.7019 28.8707 62.7424 28.7955C62.9359 28.4308 63.1306 28.032 63.3203 27.6117C63.3836 27.4755 63.4427 27.3429 63.4986 27.2072C63.6175 26.9265 63.7323 26.6487 63.8441 26.3652C63.919 26.1731 64.0183 25.9022 64.1354 25.5735C64.1508 25.5274 64.1699 25.4754 64.1898 25.4215L64.2026 25.3861C64.2088 25.3647 64.2159 25.3442 64.224 25.3278C64.2463 25.2692 64.2739 25.1851 64.3018 25.1009L64.3696 24.9085C64.3708 24.904 64.3869 24.8588 64.3881 24.8546C64.4157 24.7696 64.4457 24.6848 64.476 24.5997C64.5391 24.4198 64.6024 24.2393 64.6624 24.0558L64.8467 23.5133C64.8595 23.4755 64.872 23.4386 64.8857 23.4017C64.9175 23.2958 64.9585 23.1733 65.0028 23.0475L65.3631 21.9527C65.3655 21.9458 65.3682 21.939 65.3708 21.9322L65.4065 21.8233C65.4208 21.7796 65.4347 21.7359 65.4499 21.6927L65.6182 21.1693C65.639 21.1009 65.6627 21.0277 65.6859 20.9551L66.0159 19.9115C66.2632 19.1159 66.4505 18.4883 66.5882 17.9934C66.7225 17.5211 66.8126 17.1615 66.8492 16.9515C67.0834 15.6167 66.9687 14.6849 66.4767 13.9351C66.4731 13.9306 66.4698 13.9265 66.4666 13.922L66.309 13.7123C66.3069 13.7099 66.3049 13.7073 66.3028 13.7046C66.2115 13.588 66.1012 13.4693 65.9651 13.3423C65.1624 12.5979 63.9442 11.97 62.2424 11.4233C62.2192 11.415 62.2082 11.4126 62.1957 11.41C61.4968 11.1955 60.0583 10.8865 58.0098 10.51C58.0036 10.5091 57.9976 10.5082 57.992 10.5073C57.1439 10.3491 56.2167 10.1849 55.2437 10.0145C55.0579 9.98442 54.8615 9.95081 54.6688 9.9172C53.283 9.68283 51.8195 9.44579 50.3745 9.21409C48.8516 8.97705 47.3459 8.74893 45.9645 8.5446C43.7364 8.21892 41.9683 7.98039 40.852 7.85488C32.2276 6.89331 25.7596 6.62147 21.6294 7.04648C21.5238 7.05719 21.4358 7.06641 21.3636 7.07266C20.5417 7.14582 19.5455 7.64162 19.2138 8.81436L16.6537 17.8084C15.9848 20.0676 16.3139 22.4809 17.5116 24.1099C17.5166 24.117 17.5217 24.1245 17.5264 24.1319C17.5297 24.137 17.533 24.1423 17.5363 24.1477C17.5377 24.1494 17.5389 24.1515 17.5404 24.1536C18.1822 25.0057 19.0238 25.5884 20.0425 25.8858C20.0529 25.8849 20.0645 25.884 20.0779 25.8828C20.1745 25.8742 20.3294 25.8534 20.5283 25.8239L20.6629 25.8049C20.7512 25.7927 20.8461 25.7796 20.9448 25.7639C20.9721 25.7588 21.0057 25.754 21.0402 25.7493L22.0072 25.5961C22.0134 25.5952 22.0194 25.5943 22.0256 25.5937C22.0414 25.5896 22.0574 25.5866 22.0741 25.5848C22.248 25.5577 22.4266 25.5286 22.6071 25.4994L23.2272 25.3995C23.2287 25.3992 23.2712 25.393 23.2724 25.3927C23.2923 25.3894 23.3122 25.3861 23.3318 25.384C23.3699 25.3751 23.4356 25.365 23.5016 25.3549L24.2578 25.2312C24.534 25.188 24.795 25.1455 25.0346 25.1063C25.0952 25.0944 25.1618 25.0834 25.226 25.0726L25.364 25.0512C25.4035 25.0456 25.4418 25.0399 25.4793 25.0334C25.5625 25.0188 25.6416 25.0066 25.7153 24.995L25.8586 24.9721C26.0851 24.9349 26.2516 24.9103 26.3381 24.8978L26.3851 24.8927C26.3913 24.8921 26.4047 24.8909 26.4172 24.89C27.8477 24.6771 29.2698 24.5688 30.6444 24.5688C30.8608 24.5688 31.0769 24.5721 31.2871 24.5783C31.4999 24.5813 31.7145 24.5902 31.9262 24.6027C32.0992 24.609 32.2734 24.6212 32.4479 24.6337L32.5591 24.6423C32.6358 24.6479 32.7122 24.6539 32.7868 24.6622C32.8769 24.6673 32.9812 24.6771 33.0853 24.6902C33.3454 24.714 33.6093 24.7449 33.8703 24.7821C34.0089 24.7969 34.1581 24.8189 34.3076 24.8445C34.3308 24.8457 34.3689 24.8502 34.4126 24.8606Z" fill="#481B8F"/>
<path d="M54.0734 31.9878C52.4011 31.7492 50.5103 30.437 48.321 28.9178C44.8855 26.5337 40.6099 23.5666 34.3824 22.6778C31.7717 22.3051 28.9808 22.3337 26.0871 22.7625L26.0968 22.7634C25.7376 22.8082 25.1321 22.9072 23.9621 23.099C22.914 23.2706 21.1321 23.5624 20.284 23.6862C19.75 23.4444 19.3225 23.036 19.0099 22.4678C18.4112 21.3801 18.2979 19.8304 18.7139 18.4237C18.7164 18.4157 21.2821 9.4031 21.2821 9.4031C21.2966 9.3522 21.3294 9.23635 21.5512 9.21688C21.6329 9.20966 21.733 9.19959 21.8534 9.18735C25.8401 8.77929 32.1521 9.05095 40.6142 9.99477C42.89 10.25 45.1005 10.5302 47.1827 10.8274C49.3859 11.1419 51.5274 11.4871 53.5484 11.8535C54.3175 12.0254 55.2287 12.2033 56.1923 12.3916C58.0621 12.7571 60.1815 13.1712 61.9894 13.677C62.3193 13.7693 62.616 13.8585 62.8826 13.9441C64.0491 14.3184 64.7053 15.5546 64.3576 16.7299C64.1779 17.3376 62.0409 25.2781 61.3728 26.8391C60.0433 29.9447 58.183 31.6957 54.9488 32.0144C54.6715 32.0395 54.3794 32.0315 54.0734 31.9878Z" fill="#280046"/>
<path d="M54.6311 32.3449C54.4331 32.3449 54.2319 32.3303 54.0288 32.3012C52.2818 32.0516 50.3626 30.7198 48.1408 29.1777C44.7317 26.8123 40.4906 23.8693 34.3377 22.991C32.2181 22.6882 29.977 22.6531 27.6577 22.886L26.136 23.0772C25.7805 23.1218 25.1529 23.2245 24.0132 23.4112C22.9475 23.5855 21.1781 23.8752 20.3297 23.9992L20.2379 24.0126L20.1535 23.9746C19.5565 23.7042 19.0785 23.2485 18.7328 22.6204C18.0949 21.4613 17.9715 19.819 18.4109 18.3339C18.4254 18.2828 20.9781 9.3167 20.9781 9.3167C21.0699 8.98923 21.3595 8.91637 21.5239 8.90179C21.6035 8.89466 21.7022 8.88454 21.8214 8.87265C25.8295 8.46131 32.164 8.73405 40.6493 9.68045C42.9279 9.93593 45.1411 10.2164 47.2273 10.5141C49.4313 10.8291 51.5769 11.1747 53.6046 11.5423C54.3882 11.7169 55.294 11.8939 56.253 12.0812C58.1356 12.4494 60.2578 12.8641 62.0744 13.3726C62.4086 13.466 62.7088 13.5562 62.9787 13.6427C64.2992 14.0665 65.0537 15.4918 64.6607 16.8198C64.628 16.9301 64.5302 17.2852 64.3878 17.801C63.7383 20.1554 62.2174 25.6687 61.6633 26.9636C60.2085 30.3623 58.1472 32.0168 54.9798 32.3291C54.8651 32.3396 54.7485 32.3449 54.6311 32.3449ZM30.634 22.1017C31.9322 22.1017 33.1991 22.1894 34.4269 22.3646C40.7278 23.264 45.0373 26.2543 48.5002 28.6572C50.6572 30.1541 52.5193 31.4464 54.118 31.6748C54.3942 31.7144 54.6638 31.7221 54.9206 31.6995C57.8672 31.4089 59.7108 29.9179 61.0819 26.7144C61.6193 25.459 63.1321 19.9748 63.7784 17.6329C63.9223 17.1112 64.0213 16.7522 64.0543 16.6401C64.3506 15.6393 63.7817 14.5647 62.7858 14.2453C62.5227 14.1611 62.2302 14.0728 61.9044 13.9818C60.1116 13.4803 58.0027 13.0681 56.1418 12.704C55.1686 12.514 54.2586 12.3361 53.4795 12.1621C51.472 11.7987 49.3343 11.4543 47.1381 11.1405C45.0581 10.8437 42.8512 10.5641 40.5792 10.3092C32.1382 9.36815 25.8491 9.0966 21.8853 9.50199C21.7635 9.51448 21.6624 9.5246 21.5798 9.53203C21.578 9.53233 21.5759 9.53233 21.5741 9.53262C19.8788 15.4882 19.0191 18.5073 19.0173 18.5136C18.624 19.8422 18.7274 21.2989 19.2869 22.3152C19.5488 22.7914 19.9005 23.1424 20.333 23.3595C21.1095 23.2441 22.5179 23.0148 23.5361 22.8482L23.4317 22.8387L25.449 22.538C25.6327 22.5092 25.7846 22.4865 25.9116 22.469L26.0406 22.4497C27.6051 22.2177 29.1402 22.1017 30.634 22.1017Z" fill="#481B8F"/>
<path d="M27.6851 46.5922C27.7787 46.9104 27.9131 47.2024 28.0824 47.4687C29.0919 49.0854 31.3137 49.7892 33.2699 49.9317C35.3438 50.0897 37.8295 49.6588 39.5771 48.4253C40.4384 47.8171 41.1191 47.0142 41.4852 45.9899C41.8474 44.9751 41.7328 43.9049 40.6618 43.662C39.0083 43.2859 38.7641 45.1159 36.6521 45.102C35.6714 45.0962 34.2903 44.6914 32.1789 43.488C29.7192 42.0843 27.0057 44.3008 27.6851 46.5922Z" fill="#6D0000"/>
<path d="M34.1343 50.2691C33.8391 50.2691 33.543 50.2581 33.2466 50.2355C32.0516 50.1484 29.1291 49.7198 27.8244 47.6301C27.6377 47.3366 27.4924 47.0156 27.3934 46.6787C27.0477 45.5125 27.4641 44.2874 28.4802 43.4814C29.5902 42.6007 31.0656 42.502 32.3295 43.2238C34.1765 44.2761 35.5912 44.7909 36.6539 44.7975H36.6759C37.6123 44.7975 38.1352 44.3954 38.6412 44.0066C39.192 43.5828 39.7613 43.1459 40.7295 43.3648C41.1983 43.4713 41.5562 43.7279 41.7646 44.1072C42.0443 44.6166 42.047 45.3215 41.772 46.0921C41.4052 47.1183 40.7259 47.987 39.753 48.6744C38.3068 49.6948 36.2556 50.2691 34.1343 50.2691ZM30.5861 43.3544C29.897 43.3544 29.2885 43.6176 28.8583 43.9587C28.0411 44.6071 27.7034 45.583 27.9772 46.5059V46.5065C28.0602 46.789 28.182 47.0576 28.3393 47.3053C29.1434 48.5929 30.9942 49.4605 33.2921 49.6282C35.0582 49.7617 37.5942 49.4521 39.4019 48.1765C40.2705 47.5632 40.8752 46.7929 41.1989 45.8872C41.4111 45.2921 41.423 44.7502 41.231 44.4004C41.1055 44.172 40.8975 44.0277 40.5948 43.959C39.9046 43.8011 39.5309 44.0905 39.0122 44.4896C38.4801 44.8986 37.8189 45.4066 36.6759 45.4066H36.6501C35.4803 45.3995 33.9684 44.8584 32.0281 43.7529C31.5317 43.4695 31.0412 43.3544 30.5861 43.3544Z" fill="#481A8F"/>
<path d="M28.0824 47.4687C29.0919 49.0855 31.3138 49.7892 33.2699 49.9318C35.3438 50.0897 37.8296 49.6588 39.5771 48.4253C39.4541 48.4425 39.334 48.4563 39.2153 48.4685C36.939 48.6914 35.4848 47.8948 32.9137 47.4558C31.9203 47.2852 30.6642 47.1487 29.2623 47.1722C28.9391 47.1787 28.6591 47.2279 28.4216 47.3107C28.2976 47.354 28.1835 47.4073 28.0824 47.4687Z" fill="#FF2D00"/>
<path d="M34.1342 50.2691C33.839 50.2691 33.543 50.2581 33.2466 50.2355C32.0516 50.1484 29.1291 49.7198 27.8244 47.6301C27.781 47.5608 27.7673 47.4772 27.7863 47.3981C27.8051 47.3187 27.855 47.2503 27.9246 47.2081C28.0441 47.1358 28.1775 47.0736 28.3211 47.0234C28.5979 46.9267 28.9124 46.8746 29.256 46.8675C30.4832 46.8467 31.7332 46.9436 32.9651 47.1557C33.8607 47.3086 34.6378 47.5082 35.3233 47.6842C36.6227 48.0182 37.7449 48.3052 39.1857 48.1655C39.2996 48.1539 39.4161 48.1402 39.5356 48.1238C39.6733 48.103 39.8088 48.1827 39.8605 48.3136C39.912 48.4444 39.8674 48.5935 39.7526 48.6743C38.3067 49.6948 36.2555 50.2691 34.1342 50.2691ZM28.5405 47.5917C29.4261 48.7202 31.1681 49.4732 33.2918 49.6282C34.7187 49.7364 36.6459 49.555 38.2862 48.8106C37.1809 48.7903 36.2333 48.5468 35.172 48.2743C34.4648 48.0926 33.7338 47.9049 32.8625 47.7559C31.6675 47.5504 30.4552 47.4552 29.2673 47.4766C28.9968 47.482 28.7522 47.5209 28.5405 47.5917Z" fill="#481A8F"/>
<path d="M32.6872 45.8862C32.8439 46.8657 35.0181 47.3904 35.6656 46.2754C35.8391 45.9781 35.9615 45.6955 36.0304 45.4139C36.0596 45.295 36.0797 45.1768 36.0889 45.0579C35.3274 44.9508 34.3564 44.6311 33.0787 43.9759C33.0495 44.0349 33.0218 44.0938 32.9929 44.1575C32.9904 44.1638 32.9879 44.1716 32.9839 44.1796C32.9823 44.1798 32.9825 44.1813 32.9826 44.1828C32.9234 44.3301 32.7943 44.6655 32.7197 45.0518C32.6902 45.2076 32.669 45.3704 32.6645 45.5319C32.663 45.6517 32.6691 45.771 32.6872 45.8862Z" fill="#FDEEF9"/>
<path d="M34.3944 47.2062C34.2303 47.2062 34.0689 47.1902 33.917 47.1619C33.2327 47.0346 32.494 46.6057 32.3867 45.9345C32.3867 45.9342 32.3867 45.9339 32.3864 45.9336C32.3671 45.8092 32.3584 45.6766 32.3602 45.5279C32.365 45.3604 32.3852 45.1829 32.4206 44.9952C32.4764 44.7061 32.5683 44.4004 32.694 44.0848C32.7 44.0669 32.7074 44.0497 32.7163 44.0333C32.7482 43.9608 32.7764 43.9007 32.8058 43.8409C32.8421 43.7677 32.906 43.7121 32.9833 43.6868C33.0612 43.661 33.145 43.6675 33.2175 43.705C34.3614 44.2915 35.3418 44.6454 36.1314 44.7564C36.2904 44.7787 36.4049 44.9211 36.3924 45.0814C36.382 45.2153 36.3603 45.3479 36.3258 45.4871C36.2521 45.7893 36.1219 46.0974 35.9283 46.4291C35.5945 47.004 34.978 47.2062 34.3944 47.2062ZM32.9878 45.8384C33.0389 46.1557 33.4765 46.4606 34.0282 46.5632C34.516 46.6545 35.1331 46.5858 35.4025 46.1224C35.5663 45.8417 35.6748 45.5868 35.7345 45.3417C35.7375 45.3304 35.7402 45.3194 35.7426 45.3081C35.0145 45.1647 34.1863 44.8631 33.2279 44.3917C33.1325 44.6424 33.0621 44.8834 33.0184 45.1094C32.9892 45.2641 32.9726 45.4095 32.969 45.5401C32.9675 45.6495 32.9738 45.7486 32.9878 45.8384Z" fill="#481A8F"/>
<path d="M29.3622 45.5975C29.5469 46.5027 32.3675 46.815 32.5841 45.882C32.6037 45.7976 32.6325 45.6741 32.6645 45.532C32.6903 45.4287 32.7167 45.3131 32.7459 45.1942C32.8351 44.8174 32.9348 44.3984 32.993 44.1576C33.0197 44.0465 33.0386 43.9729 33.042 43.9573C32.7689 43.8172 32.4822 43.6597 32.179 43.4881C32.0105 43.3906 31.8387 43.3117 31.6681 43.2481C31.6671 43.2482 31.666 43.2478 31.6649 43.2468C31.3238 43.1196 30.9815 43.057 30.6497 43.0503C30.2393 43.0404 29.8446 43.1153 29.4811 43.2554C29.4112 43.4634 29.3431 43.7142 29.3029 44.0104C29.2396 44.4435 29.2343 44.9719 29.3622 45.5975Z" fill="#FDEEF9"/>
<path d="M31.3177 46.7512C31.3008 46.7512 31.2835 46.7512 31.2663 46.7509C30.4684 46.7402 29.2235 46.4404 29.0641 45.6585C28.9443 45.0731 28.9232 44.5039 29.002 43.9664C29.038 43.6979 29.1007 43.4323 29.1925 43.1583C29.2217 43.0724 29.2871 43.0037 29.3718 42.971C29.7871 42.811 30.2232 42.7366 30.6569 42.7455C31.0326 42.7533 31.4078 42.8258 31.7711 42.9612C31.7749 42.9626 31.7788 42.9641 31.7827 42.9659C31.9735 43.0373 32.1578 43.1241 32.3314 43.2247C32.6281 43.3921 32.9114 43.548 33.1807 43.6863C33.3026 43.7487 33.3677 43.8849 33.3401 44.0191L33.2886 44.2288C33.231 44.4694 33.1311 44.8879 33.0425 45.2641L32.8805 45.9508C32.7636 46.4538 32.181 46.7512 31.3177 46.7512ZM29.7258 43.4912C29.6697 43.6794 29.6301 43.8638 29.6049 44.0512C29.5359 44.522 29.5549 45.0205 29.6604 45.5365C29.7157 45.8072 30.4328 46.1305 31.2743 46.1418C31.8861 46.1492 32.2482 45.9827 32.2877 45.8128L32.4506 45.1207C32.5353 44.7623 32.6308 44.3617 32.6896 44.1166C32.478 44.0045 32.2583 43.8829 32.0291 43.7535C31.8802 43.6672 31.7241 43.5938 31.5624 43.5337C31.5591 43.5325 31.5558 43.5313 31.5529 43.5298C31.2556 43.4198 30.9497 43.3609 30.6435 43.3546C30.3338 43.3454 30.0246 43.393 29.7258 43.4912Z" fill="#481A8F"/>
<path d="M26.9592 41.5029C26.574 41.5029 26.1905 41.4395 25.8195 41.3146C23.5516 40.5514 22.2642 37.651 22.9491 34.8487C23.5139 32.5404 25.2728 30.9283 27.2265 30.9283C27.6115 30.9283 27.9949 30.9917 28.3659 31.1163C30.6338 31.8795 31.9216 34.78 31.2364 37.5823C30.6716 39.8906 28.9129 41.5029 26.9592 41.5029Z" fill="#9751F7"/>
<path d="M27.2262 31.2329C27.572 31.2329 27.9223 31.2886 28.269 31.4053C30.3941 32.1202 31.5901 34.8535 30.9404 37.5101C30.3966 39.7333 28.7329 41.1982 26.959 41.1982C26.6131 41.1982 26.2629 41.1425 25.9162 41.0259C23.7912 40.3109 22.5952 37.5777 23.2449 34.9211C23.7886 32.6978 25.4523 31.2329 27.2262 31.2329ZM27.2262 30.6237C25.1318 30.6237 23.2514 32.3313 22.6535 34.7763C21.9315 37.7285 23.3081 40.7911 25.7222 41.6032C26.1248 41.7387 26.5409 41.8073 26.959 41.8073C29.0534 41.8073 30.9338 40.0998 31.5318 37.6549C32.2538 34.7027 30.8771 31.6401 28.4631 30.8279C28.0604 30.6925 27.6443 30.6237 27.2262 30.6237Z" fill="#481B8F"/>
<path d="M26.7776 39.3591C28.1749 39.5191 29.4527 38.2366 29.6299 36.5025C29.755 35.2631 29.2854 34.1202 28.4944 33.5137C28.3163 33.3765 28.1222 33.2662 27.9139 33.1894C27.755 33.1295 27.5884 33.0891 27.4156 33.0687C27.3608 33.0621 27.3056 33.0573 27.25 33.0544C25.9196 33.01 24.7323 34.2582 24.5634 35.9253C24.4563 36.9794 24.7822 37.9638 25.369 38.6098C25.5261 38.7824 25.7033 38.9313 25.8941 39.0485C26.1153 39.1868 26.3554 39.2832 26.6123 39.335C26.6663 39.3454 26.7212 39.352 26.7776 39.3591Z" fill="#280046"/>
<path d="M25.8789 34.8705C25.1944 34.9652 24.5626 34.4872 24.468 33.802C24.3733 33.1168 24.8516 32.4843 25.5363 32.3896C26.2208 32.2949 26.8526 32.7729 26.9472 33.4581C27.0419 34.1433 26.5636 34.7758 25.8789 34.8705Z" fill="#FDEEF9"/>
<path d="M59.811 48.0379C58.5467 48.0379 57.4849 47.6497 57.4132 47.6229C57.2557 47.5641 57.176 47.3889 57.2346 47.2315C57.2931 47.0745 57.467 46.9942 57.6261 47.0522C57.6519 47.0623 60.2382 48.0036 61.9451 46.8556C62.9172 46.2025 63.4383 44.9806 63.4945 43.2247C63.7005 36.7539 66.1378 34.0751 67.5724 33.054C68.8548 32.1415 70.3204 31.8474 71.5936 32.2435C73.4013 32.8078 75.1944 34.4581 76.3897 36.6582C76.47 36.806 76.4153 36.991 76.2676 37.0713C76.1204 37.1513 75.9349 37.0969 75.8546 36.9491C74.7333 34.885 73.0725 33.3431 71.4122 32.8253C70.321 32.4842 69.0507 32.7492 67.9253 33.5504C65.6405 35.1764 64.2472 38.7098 64.1027 43.2443C64.0403 45.2088 63.4276 46.5945 62.2822 47.363C61.5138 47.8787 60.6208 48.0379 59.811 48.0379Z" fill="#481B8F"/>
<path d="M71.7624 39.5934C71.606 39.5934 71.4728 39.4736 71.4594 39.3148C71.2644 37.0213 70.0965 35.6241 70.0846 35.6101C69.9758 35.4822 69.9909 35.29 70.1188 35.1809C70.2466 35.072 70.438 35.0866 70.5471 35.2142C70.6006 35.2761 71.8536 36.7647 72.0659 39.263C72.0801 39.4308 71.9559 39.578 71.7885 39.5923C71.7796 39.5932 71.771 39.5934 71.7624 39.5934Z" fill="#481B8F"/>
<path d="M69.8536 41.3622C69.7112 41.3622 69.584 41.262 69.5554 41.1168C69.1083 38.8594 67.7935 37.5995 67.7801 37.587C67.6579 37.4719 67.6517 37.2792 67.7667 37.1567C67.8821 37.0344 68.0738 37.0276 68.1963 37.1424C68.2561 37.1983 69.6654 38.5388 70.1523 40.9985C70.185 41.1635 70.078 41.3238 69.913 41.3563C69.8931 41.3604 69.8732 41.3622 69.8536 41.3622Z" fill="#481B8F"/>
<path d="M68.2508 43.6729C68.122 43.6729 68.0022 43.5905 67.9609 43.4614C67.2588 41.2697 65.8084 40.1684 65.7938 40.1574C65.6595 40.0568 65.6312 39.8662 65.7314 39.7315C65.8313 39.5964 66.0212 39.5679 66.1565 39.6681C66.2222 39.7166 67.7757 40.8875 68.5406 43.2752C68.592 43.4356 68.5037 43.6072 68.3438 43.6583C68.3129 43.6681 68.2814 43.6729 68.2508 43.6729Z" fill="#481B8F"/>
<path d="M57.3295 48.8745C57.3295 48.8745 63.0915 51.7326 65.2215 45.7216C68.1255 37.5269 73.3076 36.1153 75.8121 37.871C80.1712 40.9268 81.3988 52.106 72.205 55.8063C67.4248 57.7302 64.2223 57.2969 58.9832 56.1933" fill="url(#paint4_linear_0_14)"/>
<path d="M65.8535 57.4426C63.8071 57.4426 61.6587 57.0682 58.9206 56.4915C58.7562 56.457 58.6506 56.2952 58.6854 56.1307C58.7199 55.9662 58.8816 55.8606 59.046 55.8954C64.4551 57.0342 67.5051 57.3697 72.0914 55.5239C77.2681 53.4402 78.4857 49.2564 78.7505 46.9475C79.1596 43.3841 77.8504 39.6716 75.6372 38.1206C74.7017 37.4645 73.4107 37.33 72.0953 37.7509C69.4246 38.6054 67.0236 41.5478 65.5084 45.8235C64.8532 47.6729 63.7949 48.9045 62.3635 49.4845C59.9203 50.4752 57.3046 49.2019 57.1943 49.1472C57.0439 49.0726 56.9824 48.8902 57.057 48.7394C57.1316 48.5886 57.3141 48.5274 57.4645 48.6014C57.4892 48.6139 59.9527 49.8081 62.1388 48.9185C63.3998 48.406 64.3407 47.2963 64.9346 45.6201C67.097 39.5182 70.2332 37.7072 71.9101 37.1706C73.4086 36.6915 74.8947 36.8559 75.9868 37.6215C78.3718 39.2933 79.7883 43.2449 79.3555 47.0171C79.0752 49.4604 77.788 53.8875 72.3185 56.089C69.9243 57.0527 67.9421 57.4426 65.8535 57.4426Z" fill="#481B8F"/>
<path d="M31.0461 9.75336L19.6927 22.4325C19.6552 22.3704 19.6152 22.3051 19.5757 22.2369C19.0056 21.2294 18.8873 19.787 19.2606 18.4753C19.2613 18.4697 19.7463 16.7009 20.271 14.783L24.8594 9.66208C26.6219 9.60333 28.6871 9.63322 31.0461 9.75336Z" fill="#FDEEF9"/>
<path d="M26.2896 22.3618C26.2349 22.3687 26.1829 22.376 26.1278 22.3857L26.1362 22.3868C25.8047 22.4309 25.2482 22.5273 24.1697 22.7164C23.4217 22.847 22.2679 23.0488 21.4224 23.1892L33.2812 9.94781C34.4968 10.0291 35.7832 10.1311 37.1351 10.2531L26.2896 22.3618Z" fill="#FDEEF9"/>
<path d="M42.5979 38.2526C42.5545 38.2526 42.5102 38.2434 42.4683 38.2235C38.8172 36.4987 35.6263 36.3738 35.5945 36.3726C35.4626 36.3684 35.3481 36.2789 35.3118 36.1516C35.2759 36.0243 35.3258 35.8884 35.4358 35.8149C35.6174 35.6939 39.9258 32.844 43.5111 32.5272C43.6812 32.51 43.8265 32.6364 43.8411 32.8038C43.856 32.9713 43.732 33.1191 43.5646 33.134C41.0004 33.3606 37.9391 35.0146 36.5396 35.8465C37.7777 36.0011 40.1181 36.4395 42.7281 37.6726C42.8803 37.7446 42.9451 37.926 42.8735 38.078C42.8215 38.1881 42.7121 38.2526 42.5979 38.2526Z" fill="#481B8F"/>
<defs>
<linearGradient id="paint0_linear_0_14" x1="58.8723" y1="11.7132" x2="45.8843" y2="8.4806" gradientUnits="userSpaceOnUse">
<stop stop-color="#00FA96"/>
<stop offset="0.51" stop-color="#00E0B8"/>
<stop offset="1" stop-color="#00B4CB"/>
</linearGradient>
<linearGradient id="paint1_linear_0_14" x1="66.9417" y1="4.61319" x2="51.1163" y2="8.43173" gradientUnits="userSpaceOnUse">
<stop stop-color="#00FA96"/>
<stop offset="0.51" stop-color="#00E0B8"/>
<stop offset="1" stop-color="#00B4CB"/>
</linearGradient>
<linearGradient id="paint2_linear_0_14" x1="37.66" y1="54.1113" x2="20.8795" y2="58.1325" gradientUnits="userSpaceOnUse">
<stop stop-color="#00FA96"/>
<stop offset="0.51" stop-color="#00E0B8"/>
<stop offset="1" stop-color="#00B4CB"/>
</linearGradient>
<linearGradient id="paint3_linear_0_14" x1="18.6599" y1="39.627" x2="80.6007" y2="39.627" gradientUnits="userSpaceOnUse">
<stop stop-color="#00FA96"/>
<stop offset="0.51" stop-color="#00E0B8"/>
<stop offset="1" stop-color="#00B4CB"/>
</linearGradient>
<linearGradient id="paint4_linear_0_14" x1="34.2602" y1="26.4018" x2="76.9238" y2="52.9317" gradientUnits="userSpaceOnUse">
<stop stop-color="#00FA96"/>
<stop offset="0.51" stop-color="#00E0B8"/>
<stop offset="1" stop-color="#00B4CB"/>
</linearGradient>
</defs>
</svg>
